<svg width="169" height="40" viewBox="0 0 169 40" fill="none" xmlns="http://www.w3.org/2000/svg">
<path d="M40.6216 0H0V40H40.6216V0Z" fill="white"/>
<path d="M32.9504 10.4262C33.4128 9.88036 33.9839 9.60672 34.6637 9.60525C34.9559 9.60438 35.2453 9.66041 35.5154 9.77013C35.7854 9.87985 36.0308 10.0411 36.2373 10.2445C36.4438 10.448 36.6074 10.6897 36.7187 10.9557C36.83 11.2217 36.8868 11.5067 36.8857 11.7944C36.8857 12.3417 36.7315 12.783 36.423 13.1184L25.1717 28.0241C24.5998 28.7593 23.8641 29.3555 23.0214 29.7666C22.1786 30.1777 21.2513 30.3928 20.3108 30.3953C19.3969 30.3974 18.4945 30.1947 17.6719 29.8028C16.8652 29.4308 16.1643 28.8683 15.6314 28.1653L4.38463 13.3446C4.1991 13.13 4.04313 12.8922 3.92072 12.6374C3.79675 12.3732 3.73361 12.0854 3.73584 11.7944C3.7348 11.5067 3.79156 11.2217 3.90285 10.9557C4.01413 10.6897 4.17775 10.448 4.38427 10.2445C4.5908 10.0411 4.83615 9.87985 5.10622 9.77013C5.37628 9.66041 5.66571 9.60438 5.95786 9.60525C6.30132 9.59463 6.64206 9.66835 6.94938 9.81975C7.25669 9.97115 7.52091 10.1955 7.71822 10.4725L18.5056 24.6499C18.7599 24.9313 19.0304 25.198 19.3158 25.4488C19.6396 25.7368 19.9724 25.8813 20.3108 25.8813C20.6492 25.8813 20.9831 25.7368 21.3058 25.4488C21.5858 25.2071 21.8417 24.9396 22.07 24.6499L32.9504 10.4262Z" fill="black"/>
<path d="M70.7483 10.8641C71.0733 10.3161 71.4741 10.0418 71.9507 10.041C72.3839 10.041 72.7522 10.2543 73.0555 10.681C73.3687 11.1387 73.5282 11.6817 73.5116 12.2334C73.5116 12.7815 73.4033 13.2228 73.1866 13.5575L73.1541 13.6028L65.2869 28.4963C64.9268 29.165 64.4246 29.7495 63.8145 30.2098C63.2805 30.627 62.6221 30.8599 61.9405 30.8724C61.259 30.885 60.5922 30.6766 60.0428 30.2793C59.4381 29.8482 58.943 29.2852 58.5961 28.6342L50.693 13.787C50.5573 13.5639 50.4479 13.3262 50.3669 13.0786C50.2781 12.8055 50.2342 12.5202 50.237 12.2334C50.2203 11.6817 50.3798 11.1387 50.693 10.681C50.9956 10.2551 51.3638 10.0418 51.7979 10.041C52.3208 10.041 52.7316 10.3305 53.0305 10.9094L60.6041 25.1166C60.7787 25.3934 60.9687 25.6605 61.1734 25.9166C61.3975 26.2067 61.6339 26.3502 61.8726 26.3502C62.1113 26.3502 62.3432 26.2067 62.5707 25.9166C62.773 25.6659 62.9526 25.3982 63.1074 25.1166L70.7483 10.8641Z" fill="white"/>
<path d="M74.6488 29.1374C74.3239 29.6846 73.9231 29.9586 73.4465 29.9594C73.0125 29.9594 72.6442 29.7461 72.3417 29.3194C72.027 28.8622 71.8663 28.3191 71.8822 27.7669C71.8822 27.2189 71.9909 26.7776 72.2083 26.4429L80.1103 11.5041C80.4567 10.8296 80.9572 10.2434 81.5726 9.79166C82.1126 9.37432 82.776 9.14174 83.4623 9.1292C84.1487 9.11665 84.8204 9.32483 85.3757 9.72215C85.9837 10.1454 86.4753 10.7107 86.8066 11.3673L94.7053 26.2145C94.8396 26.4382 94.9486 26.6757 95.0302 26.9229C95.119 27.196 95.1629 27.4813 95.1602 27.768C95.1771 28.3196 95.018 28.8626 94.7053 29.3205C94.4013 29.7479 94.033 29.9612 93.6004 29.9605C93.0775 29.9605 92.6667 29.671 92.3678 29.0921L84.7908 14.8838C84.6151 14.6077 84.4251 14.3407 84.2216 14.0838C83.9975 13.7959 83.761 13.6502 83.5235 13.6502C83.2859 13.6502 83.0517 13.7959 82.8243 14.0838C82.6227 14.3351 82.4431 14.6027 82.2875 14.8838L74.6488 29.1374Z" fill="white"/>
<path d="M97.24 29.3194C96.9269 28.8617 96.7677 28.3186 96.7851 27.7669V12.2334C96.7681 11.6818 96.9272 11.1389 97.24 10.681C97.5441 10.2551 97.9124 10.0418 98.3449 10.041H117.816C118.42 10.0402 119.011 10.2065 119.523 10.521C120.073 10.8583 120.548 11.3011 120.92 11.823C121.342 12.4139 121.661 13.0698 121.864 13.7638C122.094 14.543 122.207 15.3512 122.2 16.1626C122.206 16.8796 122.113 17.5941 121.924 18.2866C121.757 18.9014 121.511 19.4927 121.193 20.0465C121.511 20.5997 121.757 21.1903 121.924 21.8042C122.111 22.4817 122.204 23.181 122.2 23.883C122.209 24.687 122.096 25.4877 121.864 26.2586C121.658 26.9447 121.339 27.5929 120.92 28.1774C120.548 28.6995 120.073 29.1423 119.523 29.4794C119.011 29.7939 118.42 29.9602 117.816 29.9594H98.3449C97.9124 29.9594 97.5441 29.7461 97.24 29.3194ZM99.9058 14.4237V17.8045H117.979C118.304 17.8045 118.585 17.6522 118.824 17.3477C119.062 17.0431 119.181 16.647 119.181 16.1593C119.189 15.7262 119.059 15.3015 118.808 14.9456C118.558 14.5962 118.271 14.4211 117.946 14.4204L99.9058 14.4237ZM99.9058 25.5679H117.946C118.271 25.5679 118.559 25.4005 118.808 25.0659C119.06 24.7202 119.191 24.303 119.181 23.8775C119.199 23.4431 119.067 23.0156 118.808 22.6638C118.558 22.3438 118.271 22.1838 117.946 22.1838H99.9058V25.5679Z" fill="white"/>
<path d="M144.34 10.8643C144.665 10.3163 145.066 10.0419 145.543 10.0411C145.977 10.0411 146.345 10.2545 146.648 10.6811C146.961 11.1389 147.12 11.6818 147.104 12.2336C147.104 12.7816 146.995 13.2229 146.779 13.5576L146.746 13.6029L138.879 28.4964C138.517 29.1651 138.013 29.7491 137.401 30.2089C136.867 30.6261 136.209 30.8589 135.527 30.8714C134.845 30.884 134.179 30.6756 133.629 30.2784C133.025 29.8472 132.529 29.2842 132.183 28.6332L124.285 13.786C124.149 13.5629 124.04 13.3253 123.959 13.0777C123.87 12.8046 123.826 12.5192 123.829 12.2325C123.812 11.6807 123.972 11.1378 124.285 10.68C124.584 10.2541 124.952 10.0408 125.39 10.04C125.913 10.04 126.324 10.3295 126.623 10.9084L134.196 25.1156C134.371 25.3925 134.561 25.6595 134.765 25.9156C134.99 26.2058 135.226 26.3492 135.465 26.3492C135.703 26.3492 135.935 26.2058 136.163 25.9156C136.365 25.6649 136.545 25.3972 136.699 25.1156L144.34 10.8643Z" fill="white"/>
<path d="M148.241 29.1374C147.916 29.6846 147.515 29.9587 147.039 29.9594C146.605 29.9594 146.237 29.7461 145.934 29.3194C145.621 28.8618 145.461 28.3187 145.478 27.767C145.478 27.2189 145.587 26.7776 145.804 26.4429L153.703 11.5041C154.047 10.8302 154.546 10.2441 155.159 9.79166C155.699 9.37432 156.363 9.14174 157.049 9.1292C157.735 9.11665 158.407 9.32483 158.962 9.72215C159.574 10.1437 160.07 10.7088 160.405 11.3662L168.303 26.2134C168.438 26.4371 168.547 26.6746 168.628 26.9218C168.717 27.1949 168.761 27.4802 168.758 27.767C168.775 28.3185 168.616 28.8615 168.303 29.3194C167.999 29.7468 167.631 29.9601 167.198 29.9594C166.676 29.9594 166.265 29.6699 165.966 29.091L158.388 14.8838C158.212 14.6077 158.022 14.3407 157.818 14.0838C157.594 13.7959 157.358 13.6502 157.12 13.6502C156.883 13.6502 156.649 13.7959 156.421 14.0838C156.22 14.3351 156.04 14.6027 155.884 14.8838L148.241 29.1374Z" fill="white"/>
</svg>
