<svg width="133" height="32" viewBox="0 0 133 32" fill="none" xmlns="http://www.w3.org/2000/svg">
<path d="M32.0597 0H0.22168V31.8381H32.0597V0Z" fill="white"/>
<path d="M26.047 8.2985C26.4094 7.86406 26.8571 7.64626 27.3899 7.64509C27.6188 7.64439 27.8457 7.68899 28.0573 7.77632C28.269 7.86365 28.4613 7.99199 28.6232 8.15394C28.7851 8.31589 28.9133 8.50825 29.0005 8.71996C29.0877 8.93167 29.1322 9.15855 29.1314 9.38752C29.1314 9.82313 29.0105 10.1744 28.7687 10.4414L19.9503 22.3056C19.502 22.8908 18.9254 23.3653 18.2649 23.6925C17.6044 24.0197 16.8776 24.1909 16.1404 24.1929C15.4242 24.1946 14.7169 24.0333 14.0722 23.7213C13.4404 23.4239 12.892 22.975 12.4755 22.4145L3.65796 10.6214C3.51256 10.4506 3.3903 10.2613 3.29437 10.0585C3.1972 9.84825 3.14772 9.61913 3.14946 9.38752C3.14865 9.15855 3.19313 8.93167 3.28036 8.71996C3.36758 8.50825 3.49582 8.31589 3.65768 8.15394C3.81955 7.99199 4.01186 7.86365 4.22352 7.77632C4.43519 7.68899 4.66204 7.64439 4.89102 7.64509C5.16021 7.63663 5.42728 7.69531 5.66814 7.81582C5.909 7.93633 6.11609 8.11488 6.27074 8.33538L14.7256 19.6199C14.9249 19.8438 15.1369 20.0561 15.3606 20.2558C15.6144 20.485 15.8752 20.6 16.1404 20.6C16.4057 20.6 16.6674 20.485 16.9203 20.2558C17.1398 20.0634 17.3403 19.8505 17.5193 19.6199L26.047 8.2985Z" fill="black"/>
<path d="M55.672 8.64721C55.9267 8.21101 56.2408 7.99262 56.6144 7.99204C56.9539 7.99204 57.2426 8.16183 57.4803 8.50142C57.7246 8.86619 57.8483 9.29834 57.8342 9.73711C57.8342 10.1733 57.7493 10.5246 57.5796 10.791L57.5541 10.827L51.3879 22.6833C51.105 23.2141 50.7111 23.6778 50.233 24.0428C49.8145 24.3749 49.2985 24.5602 48.7643 24.5702C48.2302 24.5802 47.7075 24.4143 47.2769 24.0981C46.803 23.755 46.4149 23.3068 46.1431 22.7887L39.9532 10.9737C39.8468 10.7961 39.7611 10.6069 39.6976 10.4098C39.628 10.1925 39.5936 9.96535 39.5958 9.73711C39.582 9.29677 39.707 8.86325 39.9532 8.49791C40.1903 8.1589 40.479 7.98911 40.8191 7.98853C41.229 7.98853 41.551 8.21892 41.7852 8.6797L47.7213 19.988C47.858 20.2083 48.007 20.4209 48.1674 20.6247C48.3431 20.8557 48.5284 20.9698 48.7154 20.9698C48.9025 20.9698 49.0843 20.8557 49.2626 20.6247C49.4212 20.4252 49.5619 20.2121 49.6833 19.988L55.672 8.64721Z" fill="white"/>
<path d="M58.7292 23.1918C58.4745 23.6274 58.1604 23.8455 57.7868 23.8461C57.4467 23.8461 57.158 23.6763 56.9209 23.3367C56.6752 22.9724 56.5502 22.5402 56.5635 22.101C56.5635 21.6648 56.6486 21.3135 56.819 21.0471L63.0098 9.15657C63.2819 8.62014 63.6749 8.15417 64.1576 7.79529C64.5808 7.46311 65.1008 7.27799 65.6387 7.268C66.1766 7.25802 66.7031 7.42372 67.1384 7.73997C67.6148 8.07687 68.0002 8.52682 68.2599 9.04943L74.4506 20.8671C74.5559 21.0451 74.6413 21.2342 74.7053 21.4309C74.7749 21.6483 74.8092 21.8754 74.8072 22.1036C74.82 22.5432 74.6947 22.9756 74.4489 23.3402C74.2111 23.6804 73.9225 23.8502 73.5829 23.8496C73.1731 23.8496 72.851 23.6192 72.6168 23.1584L66.6782 11.8466C66.5405 11.6269 66.3915 11.4144 66.232 11.2099C66.0564 10.9807 65.8711 10.8648 65.6849 10.8648C65.4987 10.8648 65.3151 10.9807 65.1369 11.2099C64.9789 11.4099 64.8381 11.6229 64.7162 11.8466L58.7292 23.1918Z" fill="white"/>
<path d="M76.4358 23.3402C76.1903 22.9759 76.0656 22.5436 76.0792 22.1045V9.73711C76.0651 9.29687 76.1899 8.86336 76.4358 8.49791C76.6741 8.15891 76.9627 7.98911 77.3017 7.98853H92.5629C93.0358 7.98784 93.4993 8.12023 93.9005 8.37056C94.3314 8.63907 94.7038 8.9915 94.9957 9.40689C95.3261 9.87725 95.5761 10.3993 95.7352 10.9517C95.9157 11.5719 96.0044 12.2151 95.9986 12.861C96.0032 13.4317 95.9305 14.0004 95.7826 14.5516C95.6517 15.0424 95.459 15.5146 95.2091 15.9568C95.4585 16.3971 95.6512 16.8672 95.7826 17.3559C95.9289 17.8951 96.0016 18.4517 95.9986 19.0105C96.0056 19.6504 95.9167 20.2877 95.7352 20.9013C95.5738 21.4474 95.324 21.9633 94.9957 22.4286C94.704 22.8441 94.3315 23.1966 93.9005 23.4649C93.4993 23.7152 93.0358 23.8476 92.5629 23.8469H77.3017C76.9627 23.8464 76.6741 23.6774 76.4358 23.3402ZM78.5251 11.4839V14.1749H92.6903C92.945 14.1749 93.1657 14.0537 93.3525 13.8113C93.5393 13.5689 93.6326 13.2536 93.6326 12.8654C93.6391 12.5207 93.5368 12.1826 93.3402 11.8993C93.144 11.6212 92.9189 11.4819 92.6648 11.4813L78.5251 11.4839ZM78.5251 20.3542H92.6648C92.9195 20.3542 93.1446 20.221 93.3402 19.9546C93.5379 19.6794 93.6405 19.3474 93.6326 19.0087C93.6465 18.663 93.5435 18.3227 93.3402 18.0426C93.144 17.788 92.9189 17.6606 92.6648 17.6606H78.5251V20.3542Z" fill="white"/>
<path d="M113.352 8.64718C113.606 8.21099 113.92 7.9926 114.294 7.99201C114.634 7.99201 114.923 8.16181 115.16 8.50139C115.405 8.86576 115.53 9.29794 115.517 9.73708C115.517 10.1733 115.432 10.5246 115.263 10.791L115.237 10.827L109.071 22.6833C108.787 23.2142 108.392 23.6779 107.913 24.0428C107.494 24.3749 106.978 24.5602 106.444 24.5702C105.91 24.5802 105.387 24.4143 104.956 24.0981C104.483 23.755 104.094 23.3068 103.823 22.7887L97.6328 10.971C97.5264 10.7934 97.4406 10.6043 97.3772 10.4072C97.3076 10.1898 97.2732 9.96269 97.2753 9.73445C97.2623 9.2953 97.3873 8.86312 97.6328 8.49876C97.867 8.15976 98.1556 7.98997 98.4987 7.98938C98.9086 7.98938 99.2306 8.21977 99.4648 8.68056L105.401 19.9888C105.538 20.2092 105.687 20.4217 105.847 20.6255C106.023 20.8565 106.208 20.9707 106.395 20.9707C106.582 20.9707 106.764 20.8565 106.942 20.6255C107.101 20.426 107.241 20.2129 107.363 19.9888L113.352 8.64718Z" fill="white"/>
<path d="M116.413 23.1918C116.158 23.6274 115.844 23.8455 115.47 23.8461C115.13 23.8461 114.842 23.6763 114.605 23.3367C114.359 22.9725 114.234 22.5402 114.247 22.101C114.247 21.6648 114.332 21.3135 114.503 21.0471L120.693 9.15662C120.964 8.6202 121.354 8.15366 121.835 7.79359C122.258 7.4614 122.778 7.27628 123.316 7.2663C123.854 7.25631 124.381 7.42201 124.816 7.73826C125.292 8.07516 125.678 8.52511 125.937 9.04772L132.128 20.8653C132.233 21.0434 132.319 21.2325 132.383 21.4292C132.452 21.6466 132.487 21.8737 132.485 22.1019C132.498 22.5409 132.373 22.9731 132.128 23.3376C131.89 23.6778 131.601 23.8476 131.262 23.847C130.852 23.847 130.53 23.6166 130.296 23.1558L124.36 11.8476C124.222 11.6278 124.073 11.4153 123.914 11.2108C123.738 10.9816 123.553 10.8657 123.367 10.8657C123.181 10.8657 122.997 10.9816 122.819 11.2108C122.661 11.4108 122.52 11.6238 122.398 11.8476L116.413 23.1918Z" fill="white"/>
</svg>
