<svg width="370" height="90" viewBox="0 0 370 90" fill="none" xmlns="http://www.w3.org/2000/svg">
<path d="M89.0649 0H0V89.4198H89.0649V0Z" fill="#222222"/>
<path d="M72.2448 23.3069C73.2586 22.0867 74.5108 21.475 76.0013 21.4717C76.6418 21.4698 77.2764 21.595 77.8685 21.8403C78.4606 22.0856 78.9986 22.446 79.4514 22.9009C79.9042 23.3557 80.263 23.896 80.507 24.4906C80.751 25.0852 80.8754 25.7224 80.8731 26.3655C80.8731 27.5889 80.5349 28.5756 79.8585 29.3254L55.1894 62.6469C53.9356 64.2905 52.3226 65.6231 50.4748 66.5422C48.627 67.4612 46.5938 67.942 44.5317 67.9477C42.528 67.9523 40.5495 67.4994 38.7459 66.6231C36.9786 65.7877 35.4443 64.5269 34.2794 62.9528L9.61279 29.8311C9.20602 29.3512 8.86403 28.8196 8.59566 28.25C8.32384 27.6595 8.1854 27.016 8.19028 26.3655C8.18801 25.7224 8.31246 25.0852 8.55646 24.4906C8.80046 23.896 9.15919 23.3557 9.61201 22.9009C10.0648 22.446 10.6028 22.0856 11.1949 21.8403C11.787 21.595 12.4216 21.4698 13.0622 21.4717C13.8152 21.448 14.5623 21.6128 15.2361 21.9512C15.9099 22.2897 16.4893 22.7912 16.9219 23.4105L40.5738 55.104C41.1313 55.7329 41.7244 56.3292 42.35 56.8898C43.0601 57.5336 43.7897 57.8567 44.5317 57.8567C45.2737 57.8567 46.0058 57.5336 46.7134 56.8898C47.3273 56.3495 47.8883 55.7515 48.3889 55.104L72.2448 23.3069Z" fill="white"/>
<path d="M155.119 24.2862C155.831 23.0612 156.71 22.4478 157.755 22.4461C158.705 22.4461 159.512 22.923 160.177 23.8768C160.861 24.9013 161.207 26.115 161.167 27.3473C161.167 28.5724 160.93 29.5591 160.455 30.3073L160.384 30.4084L143.134 63.7077C142.343 65.1985 141.241 66.5008 139.904 67.5261C138.733 68.4587 137.289 68.9792 135.795 69.0073C134.301 69.0353 132.839 68.5695 131.634 67.6815C130.308 66.7177 129.223 65.4589 128.462 64.0037L111.146 30.8203C110.849 30.3215 110.609 29.7902 110.431 29.2367C110.237 28.6262 110.14 27.9884 110.146 27.3473C110.108 26.1106 110.458 24.893 111.146 23.8669C111.81 22.9148 112.617 22.4379 113.569 22.4363C114.715 22.4363 115.616 23.0834 116.271 24.3775L132.877 56.1377C133.26 56.7566 133.676 57.3536 134.125 57.926C134.617 58.5747 135.135 58.8954 135.658 58.8954C136.182 58.8954 136.69 58.5747 137.189 57.926C137.632 57.3656 138.026 56.7672 138.366 56.1377L155.119 24.2862Z" fill="#222222"/>
<path d="M163.672 65.136C162.959 66.3595 162.081 66.972 161.036 66.9737C160.084 66.9737 159.276 66.4968 158.613 65.543C157.926 64.52 157.576 63.306 157.613 62.0725C157.613 60.8474 157.852 59.8608 158.328 59.1125L175.646 25.717C176.408 24.2104 177.507 22.9017 178.857 21.8938C180.041 20.9608 181.496 20.4409 183.001 20.4128C184.505 20.3848 185.978 20.8501 187.196 21.7384C188.529 22.6846 189.607 23.9483 190.333 25.4161L207.651 58.6069C207.946 59.107 208.185 59.638 208.364 60.1905C208.558 60.801 208.655 61.4389 208.649 62.0799C208.685 63.3143 208.334 64.529 207.646 65.5529C206.982 66.5083 206.174 66.9852 205.224 66.9835C204.078 66.9835 203.177 66.3364 202.522 65.0423L185.908 33.2723C185.523 32.6551 185.107 32.0582 184.66 31.484C184.169 30.8402 183.651 30.5146 183.13 30.5146C182.609 30.5146 182.096 30.8402 181.597 31.484C181.155 32.0456 180.761 32.6438 180.42 33.2723L163.672 65.136Z" fill="#222222"/>
<path d="M213.204 65.5527C212.517 64.5294 212.169 63.3154 212.207 62.0822V27.3473C212.167 26.1109 212.516 24.8933 213.204 23.8669C213.871 22.9148 214.678 22.4379 215.626 22.4363H258.319C259.642 22.4344 260.938 22.8062 262.061 23.5093C263.266 24.2634 264.308 25.2532 265.124 26.4199C266.049 27.7409 266.748 29.2072 267.193 30.7586C267.698 32.5004 267.946 34.3071 267.93 36.1211C267.943 37.7239 267.739 39.3212 267.326 40.8693C266.959 42.2477 266.42 43.5739 265.721 44.8159C266.419 46.0524 266.958 47.3727 267.326 48.7452C267.735 50.2597 267.938 51.823 267.93 53.3923C267.949 55.1895 267.701 56.9795 267.193 58.7029C266.741 60.2366 266.043 61.6856 265.124 62.9923C264.308 64.1594 263.266 65.1494 262.061 65.903C260.938 66.606 259.642 66.9779 258.319 66.9759H215.626C214.678 66.9743 213.871 66.4999 213.204 65.5527ZM219.049 32.2534V39.8111H258.675C259.388 39.8111 260.005 39.4707 260.527 38.7899C261.05 38.1091 261.311 37.2236 261.311 36.1334C261.329 35.1651 261.043 34.2157 260.493 33.4201C259.944 32.639 259.315 32.2477 258.604 32.246L219.049 32.2534ZM219.049 57.1662H258.604C259.316 57.1662 259.946 56.7921 260.493 56.0439C261.046 55.2712 261.333 54.3386 261.311 53.3874C261.35 52.4163 261.062 51.4605 260.493 50.6741C259.944 49.9588 259.315 49.6011 258.604 49.6011H219.049V57.1662Z" fill="#222222"/>
<path d="M316.473 24.2862C317.186 23.0611 318.064 22.4478 319.109 22.4461C320.061 22.4461 320.868 22.923 321.532 23.8768C322.218 24.9001 322.568 26.1139 322.532 27.3473C322.532 28.5724 322.294 29.559 321.819 30.3072L321.748 30.4084L304.498 63.7077C303.703 65.1989 302.598 66.5011 301.258 67.526C300.087 68.4587 298.643 68.9791 297.149 69.0072C295.655 69.0353 294.193 68.5695 292.988 67.6814C291.662 66.7177 290.577 65.4589 289.816 64.0037L272.501 30.8129C272.203 30.3141 271.963 29.7828 271.786 29.2293C271.591 28.6188 271.495 27.9809 271.501 27.3399C271.464 26.1065 271.814 24.8927 272.501 23.8694C273.156 22.9172 273.963 22.4404 274.923 22.4387C276.07 22.4387 276.97 23.0858 277.626 24.3799L294.231 56.1401C294.614 56.759 295.031 57.356 295.479 57.9284C295.971 58.5771 296.489 58.8978 297.013 58.8978C297.536 58.8978 298.044 58.5771 298.543 57.9284C298.987 57.368 299.38 56.7696 299.72 56.1401L316.473 24.2862Z" fill="#222222"/>
<path d="M325.037 65.136C324.325 66.3595 323.446 66.972 322.401 66.9736C321.449 66.9736 320.642 66.4968 319.979 65.543C319.291 64.52 318.942 63.3059 318.979 62.0725C318.979 60.8474 319.217 59.8608 319.694 59.1125L337.012 25.7171C337.768 24.2105 338.861 22.9002 340.206 21.8889C341.39 20.9559 342.844 20.436 344.349 20.4079C345.854 20.3799 347.327 20.8453 348.544 21.7335C349.877 22.6797 350.955 23.9434 351.682 25.4112L369 58.602C369.294 59.1021 369.533 59.6331 369.712 60.1855C369.907 60.7961 370.003 61.4339 369.997 62.0749C370.034 63.308 369.685 64.5217 369 65.5455C368.333 66.5009 367.526 66.9778 366.577 66.9761C365.431 66.9761 364.53 66.329 363.875 65.0349L347.269 33.2748C346.884 32.6576 346.467 32.0607 346.021 31.4865C345.53 30.8427 345.011 30.5171 344.49 30.5171C343.97 30.5171 343.456 30.8427 342.957 31.4865C342.515 32.0481 342.122 32.6463 341.781 33.2748L325.037 65.136Z" fill="#222222"/>
</svg>
