<svg width="16" height="16" viewBox="0 0 16 16"  xmlns="http://www.w3.org/2000/svg">
<path d="M7.25 12.5H8.75V11H7.25V12.5ZM8 0.5C3.86 0.5 0.5 3.86 0.5 8C0.5 12.14 3.86 15.5 8 15.5C12.14 15.5 15.5 12.14 15.5 8C15.5 3.86 12.14 0.5 8 0.5ZM8 14C4.6925 14 2 11.3075 2 8C2 4.6925 4.6925 2 8 2C11.3075 2 14 4.6925 14 8C14 11.3075 11.3075 14 8 14ZM8 3.5C6.3425 3.5 5 4.8425 5 6.5H6.5C6.5 5.675 7.175 5 8 5C8.825 5 9.5 5.675 9.5 6.5C9.5 8 7.25 7.8125 7.25 10.25H8.75C8.75 8.5625 11 8.375 11 6.5C11 4.8425 9.6575 3.5 8 3.5Z" />
</svg>
