<svg width="44" height="50" viewBox="0 0 44 50" xmlns="http://www.w3.org/2000/svg">
<path d="M39.1964 11.4637C35.8574 10.3359 33.1853 7.68622 32.0487 4.37586C31.8919 3.91935 31.4641 3.61261 30.9842 3.61261H13.0157C12.5359 3.61261 12.1081 3.91935 11.9512 4.37595C10.8146 7.68622 8.14253 10.3359 4.80362 11.4636C4.3438 11.6189 4.0349 12.0474 4.0349 12.5299V21.0478C4.0349 26.8524 5.87625 32.3733 9.35993 37.0137C12.4371 41.1126 16.787 44.3527 21.6085 46.1371C21.8609 46.2304 22.1389 46.2304 22.3912 46.1371C26.5634 44.593 30.3328 42.0096 33.2916 38.6663C33.5599 38.3631 33.5317 37.8997 33.2285 37.6314C32.9251 37.363 32.4618 37.3913 32.1936 37.6945C29.4221 40.8261 25.8995 43.2527 21.9998 44.7181C17.4861 43.0214 13.4174 39.9764 10.5325 36.1334C7.24087 31.7489 5.50108 26.5324 5.50108 21.0478V12.7732C9.08515 11.4859 11.9592 8.6348 13.2576 5.07879H30.742C32.0404 8.6348 34.9145 11.4859 38.4985 12.7732V21.0478C38.4985 26.0494 37.0341 30.8779 34.2636 35.0114C34.0382 35.3478 34.1281 35.8032 34.4644 36.0286C34.8008 36.2542 35.2562 36.1642 35.4816 35.8279C38.4146 31.452 39.9648 26.3412 39.9648 21.0479V12.53C39.9649 12.0475 39.656 11.619 39.1964 11.4637ZM19.8005 29.5609C19.8005 30.7737 20.7871 31.7603 21.9999 31.7603C23.2127 31.7603 24.1993 30.7737 24.1993 29.5609V27.6388C24.4875 27.2058 24.6392 26.704 24.6392 26.18C24.6392 25.4569 24.3376 24.7574 23.8118 24.2608C23.2785 23.7572 22.5803 23.5033 21.8459 23.5451C20.548 23.6194 19.484 24.6511 19.3709 25.945C19.3184 26.5451 19.4706 27.1417 19.8005 27.6387V29.5609ZM20.8317 26.0726C20.8817 25.4992 21.3539 25.042 21.9297 25.009C21.9532 25.0076 21.9765 25.0069 21.9998 25.0069C22.3014 25.0069 22.5851 25.1191 22.8051 25.3269C23.0423 25.5509 23.1729 25.8539 23.1729 26.18C23.1729 26.4315 23.0944 26.6711 22.946 26.8731C22.8067 27.0627 22.733 27.2902 22.733 27.531V29.5608C22.733 29.9651 22.4042 30.2939 21.9999 30.2939C21.5956 30.2939 21.2668 29.9651 21.2668 29.5608V27.5309C21.2668 27.2903 21.1931 27.0627 21.0536 26.8728C20.9346 26.7109 20.7994 26.4405 20.8317 26.0726ZM42.0685 8.41193C38.4223 8.04096 35.5028 5.14907 35.1268 1.53548C35.0356 0.660117 34.3045 0 33.4259 0H10.5739C9.69541 0 8.96423 0.660117 8.87322 1.53548C8.49707 5.14897 5.57762 8.04096 1.93139 8.41193C1.05416 8.50117 0.392578 9.23245 0.392578 10.113V21.0479C0.392578 27.5792 2.45074 33.8026 6.34458 39.0455C8.21799 41.5679 10.4628 43.7814 13.0165 45.6243C15.6019 47.4901 18.4472 48.9345 21.4736 49.9173C21.813 50.0276 22.1869 50.0276 22.5263 49.9173C25.5526 48.9344 28.398 47.49 30.9833 45.6243C33.5371 43.7813 35.7818 41.5679 37.6552 39.0455C41.5491 33.8026 43.6072 27.5792 43.6072 21.0479V10.113C43.6072 9.23245 42.9458 8.50108 42.0685 8.41193ZM42.141 21.0479C42.141 27.262 40.1828 33.1831 36.4781 38.1713C32.8454 43.0626 27.8642 46.642 22.0733 48.5228C22.026 48.5381 21.9738 48.5381 21.9265 48.5228C16.1355 46.642 11.1544 43.0626 7.52171 38.1713C3.81711 33.1831 1.85885 27.262 1.85885 21.0479V10.113C1.85885 9.98759 1.95377 9.88338 2.07977 9.87067C6.4135 9.42981 9.88388 5.98817 10.3316 1.68729C10.3447 1.56129 10.4489 1.46628 10.5739 1.46628H33.4259C33.5509 1.46628 33.6551 1.56129 33.6682 1.68729C34.1159 5.98817 37.5863 9.42981 41.9201 9.87067C42.046 9.88348 42.141 9.98768 42.141 10.113V21.0479ZM16.0552 12.3967C16.2709 12.054 16.1678 11.6014 15.8251 11.3857C15.4824 11.17 15.0297 11.2732 14.8142 11.6158C13.9649 12.9657 13.516 14.5239 13.516 16.1222V20.1999C12.3967 20.8281 11.6382 22.026 11.6382 23.3983V31.9027C11.6382 33.924 13.2826 35.5684 15.3039 35.5684H28.6959C30.7172 35.5684 32.3616 33.924 32.3616 31.9027V23.3983C32.3616 22.026 31.6031 20.8282 30.4838 20.1999V16.1222C30.4838 11.4442 26.6779 7.63832 21.9999 7.63832C20.3843 7.63832 18.8116 8.09629 17.452 8.96276C17.1106 9.18035 17.0102 9.63353 17.2278 9.97498C17.4455 10.3164 17.8985 10.4169 18.24 10.1992C19.3637 9.48309 20.6638 9.10459 21.9998 9.10459C25.8693 9.10459 29.0174 12.2527 29.0174 16.1222V19.7476C28.9113 19.7383 28.8042 19.7327 28.6958 19.7327H27.5511V16.1222C27.5511 14.6392 26.9736 13.2449 25.9245 12.1958C24.8755 11.1479 23.4816 10.5708 21.9998 10.5708C18.9388 10.5708 16.4485 13.0611 16.4485 16.1221V19.7326H15.3038C15.1954 19.7326 15.0883 19.7382 14.9822 19.7475V16.1222C14.9823 14.8006 15.3534 13.5123 16.0552 12.3967ZM17.9149 16.1222C17.9149 13.8697 19.7474 12.0371 21.9999 12.0371C23.0904 12.0371 24.1162 12.462 24.8882 13.2329C25.6599 14.0048 26.085 15.0309 26.085 16.1222V19.7327H17.9149V16.1222ZM15.3039 21.1989H28.6959C29.9087 21.1989 30.8953 22.1855 30.8953 23.3983V31.9027C30.8953 33.1155 29.9087 34.1021 28.6959 34.1021H15.3039C14.0911 34.1021 13.1045 33.1155 13.1045 31.9027V23.3983C13.1045 22.1855 14.0912 21.1989 15.3039 21.1989Z" />
</svg>
