<svg width="50" height="50" viewBox="0 0 50 50"  xmlns="http://www.w3.org/2000/svg">
<path d="M26.6582 32.9142H39.9874C40.4872 32.9142 40.8204 32.581 40.8204 32.0812V24.5835C40.8204 24.0837 40.4872 23.7505 39.9874 23.7505H26.6582C26.1584 23.7505 25.8252 24.0837 25.8252 24.5835V32.0812C25.8251 32.5809 26.1584 32.9142 26.6582 32.9142ZM27.4913 25.4166H39.1543V31.248H27.4913V25.4166Z" />
<path d="M4.16556 22.084H10.8302C11.33 22.084 11.6632 21.7509 11.6632 21.251C11.6632 20.7512 11.33 20.418 10.8302 20.418H4.16556C3.66572 20.418 3.33252 20.7512 3.33252 21.251C3.33252 21.7509 3.66572 22.084 4.16556 22.084Z" />
<path d="M14.1621 22.084H20.8268C21.3266 22.084 21.6598 21.7509 21.6598 21.251C21.6598 20.7512 21.3266 20.418 20.8268 20.418H14.1621C13.6623 20.418 13.3291 20.7512 13.3291 21.251C13.3291 21.7509 13.6623 22.084 14.1621 22.084Z" />
<path d="M4.16556 25.4166H14.9955C15.4953 25.4166 15.8285 25.0834 15.8285 24.5835C15.8285 24.0837 15.4953 23.7505 14.9955 23.7505H4.16556C3.66572 23.7505 3.33252 24.0837 3.33252 24.5835C3.33252 25.0834 3.66572 25.4166 4.16556 25.4166Z" />
<path d="M20.8269 23.7505H18.3277C17.8278 23.7505 17.4946 24.0837 17.4946 24.5835C17.4946 25.0834 17.8278 25.4166 18.3277 25.4166H20.8269C21.3267 25.4166 21.6599 25.0834 21.6599 24.5835C21.6599 24.0837 21.3267 23.7505 20.8269 23.7505Z" />
<path d="M49.2346 13.4204C48.6515 12.6706 47.9017 12.2541 46.9853 12.1708L44.9859 11.9285V9.58818V7.9221C44.9859 6.08938 43.4864 4.58984 41.6537 4.58984H3.33226C1.49953 4.58975 0 6.08928 0 7.9221V9.58828V16.2529V34.5805C0 36.0852 1.01111 37.3646 2.38724 37.7746C2.34526 39.4598 3.62035 40.9228 5.33173 41.0784L43.8197 45.4104C43.903 45.4104 44.0696 45.4104 44.1529 45.4104C45.8191 45.4104 47.3186 44.1608 47.4852 42.578L49.9844 15.8363C50.0677 15.0032 49.8177 14.0868 49.2346 13.4204ZM1.66618 10.4213H43.3199V12.5873V15.4198H1.66618V10.4213ZM3.33226 6.25592H41.6536C42.57 6.25592 43.3198 7.00569 43.3198 7.9221V8.75514H1.66618V7.9221C1.66618 7.00569 2.41594 6.25592 3.33226 6.25592ZM1.66618 34.5804V17.0858H43.3199V34.5804C43.3199 35.4968 42.5701 36.2466 41.6537 36.2466H3.41563H3.33236C2.41594 36.2466 1.66618 35.4968 1.66618 34.5804ZM48.3182 15.503L45.819 42.2447C45.7357 43.1611 44.9026 43.8275 43.9863 43.7442L5.58156 39.4123C4.74852 39.329 4.1653 38.6625 4.08203 37.9127H41.6536C43.4863 37.9127 44.9858 36.4132 44.9858 34.5805V16.2528V13.5037L46.9019 13.6703C47.3185 13.6703 47.735 13.9202 47.9849 14.2534C48.2349 14.5866 48.4016 15.0865 48.3182 15.503Z" />
</svg>
