<svg width="50" height="50" viewBox="0 0 50 50"  xmlns="http://www.w3.org/2000/svg">
<path d="M8.33333 21.2209H19.1667C19.6275 21.2209 20 20.8475 20 20.3875C20 19.9275 19.6275 19.5542 19.1667 19.5542H8.33333C7.8725 19.5542 7.5 19.9275 7.5 20.3875C7.5 20.8475 7.8725 21.2209 8.33333 21.2209Z" />
<path d="M30 24.5542H8.33333C7.8725 24.5542 7.5 24.9275 7.5 25.3875C7.5 25.8475 7.8725 26.2209 8.33333 26.2209H30C30.4608 26.2209 30.8333 25.8475 30.8333 25.3875C30.8333 24.9275 30.4608 24.5542 30 24.5542Z" />
<path d="M30 29.5542H8.33333C7.8725 29.5542 7.5 29.9275 7.5 30.3875C7.5 30.8475 7.8725 31.2209 8.33333 31.2209H30C30.4608 31.2209 30.8333 30.8475 30.8333 30.3875C30.8333 29.9275 30.4608 29.5542 30 29.5542Z" />
<path d="M45.06 2.11253L16.6083 2.0542C13.8833 2.0542 11.6667 4.27087 11.6667 6.99587V11.2659L4.94167 11.28C2.21667 11.28 0 13.4967 0 16.2217V33.8392C0 36.5642 2.21667 38.78 4.94167 38.78H10V47.1134C10 47.4575 10.2117 47.7667 10.5333 47.8909C10.6308 47.9284 10.7325 47.9467 10.8333 47.9467C11.0633 47.9467 11.2892 47.8509 11.45 47.6742L19.5367 38.7784L33.3917 38.7217C36.1167 38.7217 38.3333 36.505 38.3333 33.7809V33.6867L42.7167 38.5084C42.8775 38.685 43.1033 38.7809 43.3333 38.7809C43.4342 38.7809 43.5358 38.7625 43.6333 38.725C43.955 38.6009 44.1667 38.2917 44.1667 37.9475V29.6142H45.0583C47.7833 29.6142 50 27.3975 50 24.6734V7.0542C50 4.33003 47.7842 2.11337 45.06 2.11253ZM36.6667 33.78C36.6667 35.5859 35.1975 37.0542 33.3883 37.0542L19.1633 37.1125C18.93 37.1134 18.7067 37.2125 18.55 37.385L11.6667 44.9575V37.9459C11.6667 37.4859 11.2942 37.1125 10.8333 37.1125H4.94167C3.13583 37.1125 1.66667 35.6434 1.66667 33.8384V16.2209C1.66667 14.415 3.13583 12.9459 4.94333 12.9459L12.5 12.93C12.5008 12.93 12.5008 12.93 12.5017 12.93L33.3917 12.8867C35.1975 12.8867 36.6667 14.3559 36.6667 16.1617V31.5292V33.78ZM48.3333 24.6717C48.3333 26.4775 46.8642 27.9459 45.0583 27.9459H43.3333C42.8725 27.9459 42.5 28.3192 42.5 28.7792V35.7909L38.3333 31.2075V16.1625C38.3333 13.4375 36.1167 11.2209 33.39 11.2209L13.3333 11.2617V6.99503C13.3333 5.1892 14.8025 3.72003 16.6067 3.72003L45.0575 3.77837C45.0583 3.77837 45.0583 3.77837 45.0592 3.77837C46.865 3.77837 48.3342 5.24753 48.3342 7.05337V24.6717H48.3333Z" />
</svg>
