<svg width="32" height="30" viewBox="0 0 32 30"  xmlns="http://www.w3.org/2000/svg">
<path d="M5.7142 5.6542V2.8271C5.7221 2.07456 6.0266 1.35553 6.56155 0.826191C7.09651 0.296852 7.81872 -4.14828e-05 8.5713 4.34739e-09H28.571C29.3236 -4.14828e-05 30.0458 0.296852 30.5807 0.826191C31.1157 1.35553 31.4202 2.07456 31.4281 2.8271V16.9626C31.4202 17.7151 31.1157 18.4342 30.5807 18.9635C30.0458 19.4928 29.3236 19.7897 28.571 19.7897H27.1424V24.0296C27.1424 25.3025 25.1425 26.291 24.2853 25.4425L22.8568 24.0296H11.4284L5.7142 29.6838C4.85707 30.5324 4.28565 29.541 4.28565 28.271V24.0296H2.8571C2.10452 24.0297 1.38231 23.7328 0.847358 23.2034C0.312402 22.6741 0.00790209 21.9551 0 21.2025V8.4813C0.00790209 7.72876 0.312402 7.00973 0.847358 6.48039C1.38231 5.95105 2.10452 5.65416 2.8571 5.6542H5.7142ZM24.2853 18.3754C24.275 18.1858 24.3051 17.9962 24.3734 17.8191C24.4418 17.6419 24.5469 17.4813 24.6819 17.3478C24.8169 17.2143 24.9787 17.1109 25.1566 17.0445C25.3345 16.9781 25.5244 16.9502 25.7139 16.9626H28.571V2.8271H8.5713V16.9626H18.5711C18.9997 16.9626 19.714 16.6769 19.9997 16.9626L24.2853 21.2025V18.3754ZM5.7142 8.4813H2.8571V21.2025H5.7142C5.90366 21.1901 6.09361 21.2181 6.27149 21.2844C6.44937 21.3508 6.61115 21.4542 6.74615 21.5877C6.88115 21.7212 6.9863 21.8819 7.05467 22.059C7.12303 22.2361 7.15305 22.4258 7.14275 22.6154V25.4425L9.99985 21.2025C10.2856 20.9168 10.9998 21.2025 11.4284 21.2025H19.9997L18.5711 19.7897H8.5713C7.81872 19.7897 7.09651 19.4928 6.56155 18.9635C6.0266 18.4342 5.7221 17.7151 5.7142 16.9626V8.4813Z" />
</svg>
