<svg width="30" height="30" viewBox="0 0 30 30"  xmlns="http://www.w3.org/2000/svg">
<path d="M8.60678 27.6562H4.6875C3.39516 27.6562 2.34375 26.6048 2.34375 25.3125V4.6875C2.34375 3.39516 3.39516 2.34375 4.6875 2.34375H22.0951C23.3874 2.34375 24.4388 3.39516 24.4388 4.6875V11.8945C24.4388 12.5418 24.9635 13.0664 25.6107 13.0664C26.2579 13.0664 26.7826 12.5418 26.7826 11.8945V4.6875C26.7826 2.10281 24.6797 0 22.0951 0H4.6875C2.10281 0 0 2.10281 0 4.6875V25.3125C0 27.8972 2.10281 30 4.6875 30H8.60678C9.254 30 9.77865 29.4754 9.77865 28.8281C9.77865 28.1809 9.254 27.6562 8.60678 27.6562Z" />
<path d="M21.1124 11.2637H15.5344L13.8504 6.32967C13.8085 6.23183 13.7388 6.14844 13.6499 6.08984C13.561 6.03124 13.4569 6 13.3504 6C13.244 6 13.1399 6.03124 13.051 6.08984C12.9621 6.14844 12.8924 6.23183 12.8504 6.32967L11.1134 11.2637H5.53444C5.42687 11.2511 5.31823 11.2754 5.22625 11.3326C5.13426 11.3897 5.06435 11.4763 5.02792 11.5783C4.99149 11.6803 4.99069 11.7916 5.02565 11.8941C5.06062 11.9966 5.12928 12.0842 5.22044 12.1427L9.74444 15.1747L8.00844 20.1067C7.98166 20.2079 7.98695 20.3149 8.02357 20.413C8.06019 20.5111 8.12634 20.5955 8.21291 20.6544C8.29947 20.7133 8.40218 20.7439 8.50687 20.742C8.61157 20.7401 8.71309 20.7057 8.79744 20.6437L13.3204 17.6147L17.8464 20.6437C17.9299 20.7098 18.0324 20.7476 18.1388 20.7515C18.2453 20.7553 18.3502 20.7251 18.4383 20.6651C18.5264 20.6052 18.593 20.5187 18.6284 20.4182C18.6639 20.3178 18.6664 20.2086 18.6354 20.1067L16.9024 15.1747L21.4284 12.1457C21.5217 12.0879 21.5923 12 21.6285 11.8964C21.6647 11.7929 21.6642 11.6801 21.6272 11.5768C21.5903 11.4736 21.519 11.3862 21.4253 11.3292C21.3316 11.2722 21.2211 11.249 21.1124 11.2637Z" />
<path d="M28.858 16.9672C27.4873 15.5964 25.257 15.5964 23.8871 16.9662L17.4533 23.3857C17.3167 23.5221 17.2159 23.69 17.1598 23.8747L15.7586 28.4875C15.6344 28.8965 15.7426 29.3406 16.0411 29.6465C16.2647 29.8756 16.5685 30 16.88 30C16.9842 30 17.0895 29.9861 17.1928 29.9574L21.9228 28.6472C22.1174 28.5933 22.2948 28.49 22.4378 28.3473L28.8581 21.9391C30.2288 20.5683 30.2288 18.338 28.858 16.9672ZM21.0001 26.4708L18.6205 27.13L19.3169 24.8373L23.6581 20.5058L25.3157 22.1634L21.0001 26.4708ZM27.2016 20.2811L26.9746 20.5077L25.3173 18.8504L25.5436 18.6245C26.0005 18.1676 26.7439 18.1676 27.2008 18.6245C27.6577 19.0815 27.6577 19.8249 27.2016 20.2811Z" />
</svg>
