<svg width="50" height="50" viewBox="0 0 50 50"  xmlns="http://www.w3.org/2000/svg">
<path d="M29.565 9.45417C30.3567 8.45833 30.8333 7.20167 30.8333 5.83333C30.8333 2.61667 28.2167 0 25 0C21.7833 0 19.1667 2.61667 19.1667 5.83333C19.1667 7.20167 19.6433 8.45833 20.435 9.45417C17.1417 11.15 15 14.5742 15 18.3333V20.8333C15 21.2933 15.3733 21.6667 15.8333 21.6667H34.1667C34.6267 21.6667 35 21.2933 35 20.8333V18.3333C35 14.5742 32.8583 11.15 29.565 9.45417ZM25 1.66667C27.2975 1.66667 29.1667 3.53583 29.1667 5.83333C29.1667 7.20667 28.49 8.4175 27.4617 9.1775C27.3633 9.25 27.2625 9.3175 27.1592 9.38C27.0592 9.44167 26.9542 9.49583 26.8483 9.54917C26.7125 9.61583 26.5758 9.68 26.435 9.73083C26.3733 9.75333 26.3083 9.77 26.245 9.79C25.4367 10.0375 24.565 10.0375 23.7558 9.79C23.6925 9.77 23.6275 9.75417 23.5658 9.73083C23.4242 9.68 23.2883 9.61583 23.1525 9.54917C23.0467 9.49667 22.9425 9.44167 22.8417 9.38C22.7383 9.3175 22.6375 9.25 22.5392 9.1775C21.51 8.4175 20.8333 7.20667 20.8333 5.83333C20.8333 3.53583 22.7025 1.66667 25 1.66667ZM33.3333 20H16.6667V18.3333C16.6667 14.9958 18.69 11.9708 21.745 10.6717C21.9817 10.8317 22.2342 10.9692 22.4942 11.0933C22.4958 11.0942 22.4967 11.095 22.4983 11.0958C23.2575 11.4575 24.1042 11.6667 25 11.6667C25.8958 11.6667 26.7425 11.4575 27.5017 11.095C27.5033 11.0942 27.5042 11.0933 27.5058 11.0925C27.7658 10.9683 28.0183 10.8308 28.255 10.6708C31.31 11.9708 33.3333 14.9958 33.3333 18.3333V20Z" />
<path d="M14.565 37.7877C15.3567 36.7918 15.8333 35.5352 15.8333 34.1668C15.8333 30.9502 13.2167 28.3335 10 28.3335C6.78333 28.3335 4.16667 30.9502 4.16667 34.1668C4.16667 35.5352 4.64333 36.7918 5.435 37.7877C2.14167 39.4835 0 42.9077 0 46.6668V49.1668C0 49.6268 0.373333 50.0002 0.833333 50.0002H19.1667C19.6267 50.0002 20 49.6268 20 49.1668V46.6668C20 42.9077 17.8583 39.4835 14.565 37.7877ZM10 30.0002C12.2975 30.0002 14.1667 31.8693 14.1667 34.1668C14.1667 35.5402 13.49 36.751 12.4617 37.511C12.3633 37.5835 12.2625 37.651 12.1592 37.7135C12.0592 37.7752 11.9542 37.8293 11.8483 37.8827C11.7125 37.9493 11.5758 38.0135 11.435 38.0643C11.3733 38.0868 11.3083 38.1035 11.245 38.1235C10.4367 38.371 9.565 38.371 8.75583 38.1235C8.6925 38.1035 8.6275 38.0877 8.56583 38.0643C8.42417 38.0135 8.28833 37.9493 8.1525 37.8827C8.04667 37.8302 7.9425 37.7752 7.84167 37.7135C7.73833 37.651 7.6375 37.5835 7.53917 37.511C6.51 36.751 5.83333 35.5402 5.83333 34.1668C5.83333 31.8693 7.7025 30.0002 10 30.0002ZM18.3333 48.3335H1.66667V46.6668C1.66667 43.3293 3.69 40.3043 6.745 39.0052C6.98167 39.1652 7.23417 39.3027 7.49417 39.4268C7.49583 39.4277 7.49667 39.4285 7.49833 39.4293C8.2575 39.791 9.10417 40.0002 10 40.0002C10.8958 40.0002 11.7425 39.791 12.5017 39.4285C12.5033 39.4277 12.5042 39.4268 12.5058 39.426C12.7658 39.3018 13.0183 39.1643 13.255 39.0043C16.31 40.3043 18.3333 43.3293 18.3333 46.6668V48.3335Z" />
<path d="M44.565 37.7877C45.3567 36.7918 45.8333 35.5352 45.8333 34.1668C45.8333 30.9502 43.2167 28.3335 40 28.3335C36.7833 28.3335 34.1667 30.9502 34.1667 34.1668C34.1667 35.5352 34.6433 36.7918 35.435 37.7877C32.1417 39.4835 30 42.9077 30 46.6668V49.1668C30 49.6268 30.3733 50.0002 30.8333 50.0002H49.1667C49.6267 50.0002 50 49.6268 50 49.1668V46.6668C50 42.9077 47.8583 39.4835 44.565 37.7877ZM40 30.0002C42.2975 30.0002 44.1667 31.8693 44.1667 34.1668C44.1667 35.5402 43.49 36.751 42.4617 37.511C42.3633 37.5835 42.2625 37.651 42.1592 37.7135C42.0592 37.7752 41.9542 37.8293 41.8483 37.8827C41.7125 37.9493 41.5758 38.0135 41.435 38.0643C41.3733 38.0868 41.3083 38.1035 41.245 38.1235C40.4367 38.371 39.565 38.371 38.7558 38.1235C38.6925 38.1035 38.6275 38.0877 38.5658 38.0643C38.4242 38.0135 38.2883 37.9493 38.1525 37.8827C38.0467 37.8302 37.9425 37.7752 37.8417 37.7135C37.7383 37.651 37.6375 37.5835 37.5392 37.511C36.51 36.751 35.8333 35.5402 35.8333 34.1668C35.8333 31.8693 37.7025 30.0002 40 30.0002ZM48.3333 48.3335H31.6667V46.6668C31.6667 43.3293 33.69 40.3043 36.745 39.0052C36.9817 39.1652 37.2342 39.3027 37.4942 39.4268C37.4958 39.4277 37.4967 39.4285 37.4983 39.4293C38.2575 39.791 39.1042 40.0002 40 40.0002C40.8958 40.0002 41.7425 39.791 42.5017 39.4285C42.5033 39.4277 42.5042 39.4268 42.5058 39.426C42.7658 39.3018 43.0183 39.1643 43.255 39.0043C46.31 40.3043 48.3333 43.3293 48.3333 46.6668V48.3335Z" />
<path d="M25.8333 27.9335V23.3335H24.1667V27.9335L20.3125 31.016L21.3542 32.3177L25 29.401L28.6458 32.3177L29.6875 31.016L25.8333 27.9335Z" />
<path d="M25.8332 13.3335H24.1665V15.0002H25.8332V13.3335Z" />
<path d="M25.8332 16.6665H24.1665V18.3332H25.8332V16.6665Z" />
<path d="M40.8332 41.6665H39.1665V43.3332H40.8332V41.6665Z" />
<path d="M40.8332 45H39.1665V46.6667H40.8332V45Z" />
<path d="M10.8332 41.6665H9.1665V43.3332H10.8332V41.6665Z" />
<path d="M10.8332 45H9.1665V46.6667H10.8332V45Z" />
</svg>
