<svg width="32" height="32" viewBox="0 0 32 32"  xmlns="http://www.w3.org/2000/svg">
<path d="M20.044 20.362V22.036H11.71L11.35 20.92C11.854 20.38 12.226 19.846 12.466 19.318C12.706 18.778 12.826 18.112 12.826 17.32C12.826 17.08 12.796 16.828 12.736 16.564H10.756V15.142H12.286C12.034 14.386 11.908 13.654 11.908 12.946C11.908 12.142 12.082 11.446 12.43 10.858C12.778 10.27 13.258 9.82 13.87 9.508C14.482 9.184 15.19 9.022 15.994 9.022C17.278 9.022 18.25 9.382 18.91 10.102C19.57 10.822 19.912 11.74 19.936 12.856H18.064C18.064 12.208 17.896 11.698 17.56 11.326C17.224 10.942 16.702 10.75 15.994 10.75C15.346 10.75 14.824 10.936 14.428 11.308C14.044 11.68 13.852 12.262 13.852 13.054C13.852 13.402 13.888 13.738 13.96 14.062C14.032 14.386 14.134 14.746 14.266 15.142H17.758V16.564H14.68C14.74 16.84 14.77 17.098 14.77 17.338C14.77 18.502 14.368 19.51 13.564 20.362H20.044Z" />
<path d="M20.044 20.362H20.244V20.162H20.044V20.362ZM20.044 22.036V22.236H20.244V22.036H20.044ZM11.71 22.036L11.5197 22.0974L11.5644 22.236H11.71V22.036ZM11.35 20.92L11.2038 20.7835L11.1236 20.8695L11.1597 20.9814L11.35 20.92ZM12.466 19.318L12.6481 19.4008L12.6488 19.3992L12.466 19.318ZM12.736 16.564L12.931 16.5197L12.8956 16.364H12.736V16.564ZM10.756 16.564H10.556V16.764H10.756V16.564ZM10.756 15.142V14.942H10.556V15.142H10.756ZM12.286 15.142V15.342H12.5635L12.4757 15.0788L12.286 15.142ZM12.43 10.858L12.6021 10.9599L12.43 10.858ZM13.87 9.508L13.9608 9.6862L13.9636 9.68476L13.87 9.508ZM18.91 10.102L19.0574 9.96686L18.91 10.102ZM19.936 12.856V13.056H20.1403L20.136 12.8517L19.936 12.856ZM18.064 12.856H17.864V13.056H18.064V12.856ZM17.56 11.326L17.4095 11.4577L17.4116 11.4601L17.56 11.326ZM14.428 11.308L14.291 11.1622L14.2888 11.1644L14.428 11.308ZM13.96 14.062L13.7648 14.1054L13.96 14.062ZM14.266 15.142L14.0763 15.2052L14.1218 15.342H14.266V15.142ZM17.758 15.142H17.958V14.942H17.758V15.142ZM17.758 16.564V16.764H17.958V16.564H17.758ZM14.68 16.564V16.364H14.4319L14.4846 16.6065L14.68 16.564ZM13.564 20.362L13.4185 20.2247L13.1003 20.562H13.564V20.362ZM19.844 20.362V22.036H20.244V20.362H19.844ZM20.044 21.836H11.71V22.236H20.044V21.836ZM11.9003 21.9746L11.5403 20.8586L11.1597 20.9814L11.5197 22.0974L11.9003 21.9746ZM11.4962 21.0565C12.0111 20.5047 12.397 19.953 12.6481 19.4008L12.2839 19.2352C12.055 19.739 11.6969 20.2553 11.2038 20.7835L11.4962 21.0565ZM12.6488 19.3992C12.9033 18.8265 13.026 18.131 13.026 17.32H12.626C12.626 18.093 12.5087 18.7295 12.2832 19.2368L12.6488 19.3992ZM13.026 17.32C13.026 17.0633 12.9939 16.7964 12.931 16.5197L12.541 16.6083C12.5981 16.8596 12.626 17.0967 12.626 17.32H13.026ZM12.736 16.364H10.756V16.764H12.736V16.364ZM10.956 16.564V15.142H10.556V16.564H10.956ZM10.756 15.342H12.286V14.942H10.756V15.342ZM12.4757 15.0788C12.2297 14.3406 12.108 13.63 12.108 12.946H11.708C11.708 13.678 11.8383 14.4314 12.0963 15.2052L12.4757 15.0788ZM12.108 12.946C12.108 12.1714 12.2754 11.5119 12.6021 10.9599L12.2579 10.7561C11.8886 11.38 11.708 12.1126 11.708 12.946H12.108ZM12.6021 10.9599C12.9307 10.4047 13.3824 9.98106 13.9608 9.68618L13.7792 9.32982C13.1336 9.65894 12.6253 10.1353 12.2579 10.7561L12.6021 10.9599ZM13.9636 9.68476C14.5424 9.37831 15.2173 9.222 15.994 9.222V8.822C15.1627 8.822 14.4216 8.98969 13.7764 9.33124L13.9636 9.68476ZM15.994 9.222C17.2405 9.222 18.1514 9.57042 18.7626 10.2371L19.0574 9.96686C18.3486 9.19358 17.3155 8.822 15.994 8.822V9.222ZM18.7626 10.2371C19.3851 10.9163 19.7129 11.7855 19.736 12.8603L20.136 12.8517C20.1111 11.6945 19.7549 10.7277 19.0574 9.96686L18.7626 10.2371ZM19.936 12.656H18.064V13.056H19.936V12.656ZM18.264 12.856C18.264 12.1734 18.0864 11.6104 17.7084 11.1919L17.4116 11.4601C17.7056 11.7856 17.864 12.2426 17.864 12.856H18.264ZM17.7105 11.1943C17.3235 10.752 16.7364 10.55 15.994 10.55V10.95C16.6676 10.95 17.1245 11.132 17.4095 11.4577L17.7105 11.1943ZM15.994 10.55C15.3055 10.55 14.7311 10.7489 14.2911 11.1622L14.5649 11.4538C14.9169 11.1231 15.3865 10.95 15.994 10.95V10.55ZM14.2888 11.1644C13.8506 11.5889 13.652 12.2339 13.652 13.054H14.052C14.052 12.2901 14.2374 11.7711 14.5672 11.4516L14.2888 11.1644ZM13.652 13.054C13.652 13.4159 13.6894 13.7665 13.7648 14.1054L14.1552 14.0186C14.0866 13.7095 14.052 13.3881 14.052 13.054H13.652ZM13.7648 14.1054C13.8386 14.4375 13.9426 14.8043 14.0763 15.2052L14.4557 15.0788C14.3254 14.6877 14.2254 14.3345 14.1552 14.0186L13.7648 14.1054ZM14.266 15.342H17.758V14.942H14.266V15.342ZM17.558 15.142V16.564H17.958V15.142H17.558ZM17.758 16.364H14.68V16.764H17.758V16.364ZM14.4846 16.6065C14.542 16.8709 14.57 17.1145 14.57 17.338H14.97C14.97 17.0815 14.938 16.8091 14.8754 16.5215L14.4846 16.6065ZM14.57 17.338C14.57 18.4506 14.1878 19.4096 13.4185 20.2247L13.7095 20.4993C14.5482 19.6104 14.97 18.5534 14.97 17.338H14.57ZM13.564 20.562H20.044V20.162H13.564V20.562Z" />
<path d="M30.3756 15.3752C30.0296 15.3752 29.7494 15.6548 29.7494 16C29.7494 17.8567 29.3868 19.6575 28.67 21.3522C27.9769 22.9892 26.9863 24.4595 25.7229 25.7229C24.4594 26.9864 22.9891 27.977 21.3521 28.67C19.6575 29.3869 17.8567 29.7494 15.9999 29.7494C14.1432 29.7494 12.3424 29.3869 10.6482 28.67C9.01123 27.977 7.54047 26.9864 6.27701 25.7229C5.01402 24.4595 4.0225 22.9892 3.32992 21.3522C2.6135 19.6575 2.25004 17.8567 2.25004 16C2.25004 14.1433 2.6135 12.3425 3.32992 10.6483C4.0225 9.01088 5.01402 7.54053 6.27701 6.27707C7.54041 5.01408 9.01123 4.02256 10.6482 3.32998C12.3424 2.61314 14.1432 2.2501 15.9999 2.2501C17.8567 2.2501 19.6575 2.61309 21.3521 3.32998C22.8664 3.97088 24.2397 4.86854 25.4372 6.0001H23.1429C22.7987 6.0001 22.5186 6.27977 22.5186 6.62494C22.5186 6.97012 22.7987 7.24979 23.1429 7.24979H26.8929C27.239 7.24979 27.5192 6.97012 27.5192 6.62494V2.875C27.5192 2.52982 27.239 2.25016 26.8929 2.25016C26.5487 2.25016 26.2686 2.52982 26.2686 2.875V5.06629C23.5843 2.54447 19.9734 1 16 1C7.71584 1 1 7.71584 1 16C1 24.2837 7.71584 31 16 31C24.2837 31 31 24.2837 31 16C31 15.6548 30.7199 15.3752 30.3756 15.3752Z"  stroke="currentColor"/>
</svg>
