<svg width="50" height="50" viewBox="0 0 50 50"  xmlns="http://www.w3.org/2000/svg">
<g clip-path="url(#clip0)">
<path d="M47.7083 30.7962C46.5025 29.5792 44.9111 28.8199 43.2066 28.6484V5.4361C43.2066 5.17375 43.0741 4.9287 42.8538 4.7854C42.6334 4.6421 42.3559 4.62045 42.1156 4.72696L28.5842 10.7409L15.0376 3.21514C15.0294 3.21081 15.0212 3.20735 15.0134 3.20345C15.0056 3.19956 14.9947 3.19393 14.9852 3.1896C14.9649 3.18051 14.9445 3.17185 14.9237 3.16449C14.9172 3.16189 14.9103 3.15929 14.9038 3.15713C14.8467 3.13808 14.7878 3.12596 14.7281 3.12076C14.722 3.12033 14.7155 3.12033 14.7094 3.1199C14.6861 3.11816 14.6627 3.11773 14.6397 3.1186C14.6315 3.1186 14.6237 3.1186 14.6159 3.11946C14.5917 3.12119 14.5679 3.12336 14.5441 3.12726C14.5384 3.12812 14.5332 3.12855 14.5276 3.12942C14.4982 3.13462 14.4692 3.14111 14.441 3.14977C14.4358 3.15107 14.4311 3.15323 14.4259 3.15496C14.4021 3.16232 14.3791 3.17098 14.3562 3.18094C14.3527 3.18224 14.3492 3.1831 14.3458 3.1844L0.460644 9.35548C0.180534 9.48016 0 9.75811 0 10.0651V40.9204C0 41.1832 0.132478 41.4283 0.352843 41.5711C0.573208 41.7144 0.85072 41.7365 1.091 41.63L14.6224 35.6157L28.169 43.1414C28.179 43.147 28.1898 43.1509 28.2002 43.1561C28.2136 43.163 28.2274 43.1695 28.2413 43.1756C28.2603 43.1838 28.2798 43.1907 28.2997 43.1972C28.3132 43.202 28.3262 43.2068 28.34 43.2102C28.3612 43.2163 28.3829 43.2206 28.4041 43.2245C28.4171 43.2267 28.4296 43.2301 28.443 43.2319C28.4703 43.2353 28.4976 43.2371 28.5253 43.2379C28.5322 43.2379 28.5392 43.2392 28.5461 43.2392C28.5777 43.2388 28.6093 43.2366 28.6405 43.2327C28.6478 43.2319 28.6547 43.2306 28.6621 43.2293C28.6859 43.2258 28.7093 43.221 28.7331 43.215C28.7426 43.2128 28.7517 43.2107 28.7608 43.2076C28.7829 43.2016 28.805 43.1938 28.8266 43.1855C28.8353 43.1825 28.8439 43.1795 28.8522 43.1756C28.8552 43.1747 28.8582 43.1739 28.8608 43.1726L35.88 40.0528C36.2099 40.6234 36.6052 41.1533 37.058 41.6322L41.874 46.7616C42.0208 46.9179 42.2251 47.0066 42.4394 47.0066C42.6537 47.0066 42.8585 46.9179 43.0053 46.7616L47.8208 41.6322C48.5711 40.8494 49.1543 39.9225 49.5353 38.9073C49.8985 37.9267 50.0518 36.8807 49.9846 35.8373C49.8595 33.9372 49.0508 32.1465 47.7083 30.7962ZM41.655 28.6506C39.957 28.8255 38.3724 29.584 37.171 30.7962C35.8281 32.1465 35.0193 33.9376 34.8942 35.8378C34.8332 36.7842 34.9548 37.7331 35.2514 38.6337L29.3219 41.2689V12.1115L41.6554 6.63014L41.655 28.6506ZM15.4368 5.21228L27.7698 12.0639V41.1443L15.4368 34.2926V5.21228ZM1.55164 10.5686L13.8851 5.08759V34.245L1.55164 39.7264V10.5686ZM48.078 38.3765C47.7689 39.1943 47.2966 39.9411 46.69 40.571L42.4399 45.0983L38.1897 40.5706C37.5832 39.9407 37.1109 39.1939 36.8017 38.3761C36.5125 37.5985 36.3905 36.769 36.4428 35.9417C36.5428 34.4151 37.1923 32.9765 38.2707 31.8915C39.3751 30.7837 40.8752 30.1607 42.4399 30.1607C44.0045 30.1607 45.5046 30.7837 46.6095 31.8915C47.6879 32.9765 48.3369 34.4151 48.4373 35.9417C48.4893 36.769 48.3672 37.5985 48.078 38.3761V38.3765Z" />
<path d="M42.4396 31.6182C40.1784 31.6182 38.3389 33.498 38.3389 35.8081C38.3389 38.1183 40.1784 39.9981 42.4396 39.9981C44.7004 39.9981 46.5404 38.1183 46.5404 35.8081C46.5404 33.4975 44.7004 31.6182 42.4396 31.6182ZM42.4396 38.4464C41.0339 38.4464 39.8905 37.2628 39.8905 35.8081C39.8905 34.353 41.0339 33.1698 42.4396 33.1698C43.8449 33.1698 44.9888 34.353 44.9888 35.8081C44.9888 37.2628 43.8449 38.4464 42.4396 38.4464Z" />
</g>
<defs>
<clipPath id="clip0">
<rect width="50" height="50" />
</clipPath>
</defs>
</svg>
