<svg width="30" height="27" viewBox="0 0 30 27" xmlns="http://www.w3.org/2000/svg">
<path d="M26.8898 2.54063H25.0065V1.04805C25.0065 0.618255 24.6548 0.266602 24.225 0.266602C23.7952 0.266602 23.4436 0.618255 23.4436 1.04805V2.54063H15.7853V1.04805C15.7853 0.618255 15.4337 0.266602 15.0039 0.266602C14.5741 0.266602 14.2224 0.618255 14.2224 1.04805V2.54063H6.48606V1.04805C6.48606 0.618255 6.1344 0.266602 5.7046 0.266602C5.27481 0.266602 4.92315 0.618255 4.92315 1.04805V2.54063H3.118C1.3988 2.54063 0 3.98631 0 5.70551V23.8743C0 25.6013 1.39099 27.0001 3.118 27.0001H26.882C28.609 27.0001 30 25.6013 30 23.8821V5.70551C30.0078 3.98631 28.609 2.54063 26.8898 2.54063ZM28.4449 23.8743C28.4449 24.7339 27.7572 25.4293 26.8976 25.4372H26.8898H3.118C2.2584 25.4372 1.56291 24.7417 1.56291 23.8821V23.8743V5.70551C1.56291 4.83809 2.2584 4.10353 3.118 4.10353H4.92315V5.23663C4.92315 5.66643 5.27481 6.01809 5.7046 6.01809C6.1344 6.01809 6.48606 5.66643 6.48606 5.23663V4.10353H14.2224V5.23663C14.2224 5.66643 14.5741 6.01809 15.0039 6.01809C15.4337 6.01809 15.7853 5.66643 15.7853 5.23663V4.10353H23.4436V5.23663C23.4436 5.66643 23.7952 6.01809 24.225 6.01809C24.6548 6.01809 25.0065 5.66643 25.0065 5.23663V4.10353H26.8898C27.7572 4.10353 28.4449 4.84591 28.4449 5.70551V23.8743Z" />
<path d="M12.9483 9.18262H11.5808C11.151 9.18262 10.7993 9.53427 10.7993 9.96407C10.7993 10.3939 11.151 10.7455 11.5808 10.7455H12.9483C13.3781 10.7455 13.7298 10.3939 13.7298 9.96407C13.7298 9.53427 13.3781 9.18262 12.9483 9.18262Z" />
<path d="M18.3878 9.18262H17.0202C16.5904 9.18262 16.2388 9.53427 16.2388 9.96407C16.2388 10.3939 16.5904 10.7455 17.0202 10.7455H18.3878C18.8176 10.7455 19.1692 10.3939 19.1692 9.96407C19.1692 9.53427 18.8254 9.18262 18.3878 9.18262Z" />
<path d="M23.8731 9.18262H22.5056C22.0758 9.18262 21.7241 9.53427 21.7241 9.96407C21.7241 10.3939 22.0758 10.7455 22.5056 10.7455H23.8731C24.3029 10.7455 24.6546 10.3939 24.6546 9.96407C24.6546 9.53427 24.3029 9.18262 23.8731 9.18262Z" />
<path d="M12.9483 14.5747H11.5808C11.151 14.5747 10.7993 14.9264 10.7993 15.3562C10.7993 15.786 11.151 16.1376 11.5808 16.1376H12.9483C13.3781 16.1376 13.7298 15.786 13.7298 15.3562C13.7298 14.9264 13.3781 14.5747 12.9483 14.5747Z" />
<path d="M7.47077 14.5747H6.09542C5.66562 14.5747 5.31396 14.9264 5.31396 15.3562C5.31396 15.786 5.66562 16.1376 6.09542 16.1376H7.46296C7.89276 16.1376 8.24441 15.786 8.24441 15.3562C8.24441 14.9264 7.90057 14.5747 7.47077 14.5747Z" />
<path d="M18.3878 14.5747H17.0202C16.5904 14.5747 16.2388 14.9264 16.2388 15.3562C16.2388 15.786 16.5904 16.1376 17.0202 16.1376H18.3878C18.8176 16.1376 19.1692 15.786 19.1692 15.3562C19.1692 14.9264 18.8254 14.5747 18.3878 14.5747Z" />
<path d="M23.8731 14.5747H22.5056C22.0758 14.5747 21.7241 14.9264 21.7241 15.3562C21.7241 15.786 22.0758 16.1376 22.5056 16.1376H23.8731C24.3029 16.1376 24.6546 15.786 24.6546 15.3562C24.6546 14.9264 24.3029 14.5747 23.8731 14.5747Z" />
<path d="M12.9483 19.8887H11.5808C11.151 19.8887 10.7993 20.2403 10.7993 20.6701C10.7993 21.0999 11.151 21.4516 11.5808 21.4516H12.9483C13.3781 21.4516 13.7298 21.0999 13.7298 20.6701C13.7298 20.2403 13.3781 19.8887 12.9483 19.8887Z" />
<path d="M7.47077 19.8887H6.09542C5.66562 19.8887 5.31396 20.2403 5.31396 20.6701C5.31396 21.0999 5.66562 21.4516 6.09542 21.4516H7.46296C7.89276 21.4516 8.24441 21.0999 8.24441 20.6701C8.24441 20.2403 7.90057 19.8887 7.47077 19.8887Z" />
<path d="M18.3878 19.8887H17.0202C16.5904 19.8887 16.2388 20.2403 16.2388 20.6701C16.2388 21.0999 16.5904 21.4516 17.0202 21.4516H18.3878C18.8176 21.4516 19.1692 21.0999 19.1692 20.6701C19.1692 20.2403 18.8254 19.8887 18.3878 19.8887Z" />
</svg>
