<svg width="30" height="26" viewBox="0 0 30 26"  xmlns="http://www.w3.org/2000/svg">
<path d="M28.2537 19.9296L23.6414 17.2666C22.7103 16.7291 21.542 17.4018 21.542 18.4787V20.0951H8.851C5.12461 20.095 2.09297 17.0635 2.09297 13.337C2.09297 12.759 1.6244 12.2905 1.04648 12.2905C0.468516 12.2905 0 12.7591 0 13.337C0 18.2175 3.97061 22.1881 8.85106 22.1881H21.5419V23.8045C21.5419 24.8795 22.7087 25.555 23.6413 25.0166L28.2536 22.3537C29.1847 21.8162 29.1863 20.468 28.2537 19.9296Z" />
<path d="M21.1489 3.81169H8.45791V2.1952C8.45791 1.12018 7.29113 0.444657 6.35855 0.983134L1.74623 3.64604C0.81523 4.18352 0.813589 5.53171 1.74623 6.07018L6.35855 8.73315C7.2896 9.27069 8.45791 8.59786 8.45791 7.52108V5.90466H21.1489C24.8753 5.90466 27.9069 8.93624 27.9069 12.6627C27.9069 13.2407 28.3755 13.7092 28.9534 13.7092C29.5314 13.7092 29.9999 13.2406 29.9999 12.6627C30 7.78223 26.0294 3.81169 21.1489 3.81169Z" />
</svg>
