<svg width="37" height="33" viewBox="0 0 37 33"  xmlns="http://www.w3.org/2000/svg">
<path d="M29.3957 32.7916C25.3178 32.7916 22 29.4738 22 25.3957C22 21.3178 25.3178 18 29.3957 18C33.4738 18 36.7916 21.3178 36.7916 25.3957C36.7916 29.4738 33.4738 32.7916 29.3957 32.7916ZM29.3957 19.7067C26.2587 19.7067 23.7067 22.2587 23.7067 25.3957C23.7067 28.5327 26.2587 31.0849 29.3957 31.0849C32.5327 31.0849 35.0849 28.5327 35.0849 25.3957C35.0849 22.2587 32.5327 19.7067 29.3957 19.7067Z" />
<path d="M29.3954 29.5618C28.9243 29.5618 28.542 29.1795 28.542 28.7085V22.4505C28.542 21.9795 28.9243 21.5972 29.3954 21.5972C29.8664 21.5972 30.2487 21.9795 30.2487 22.4505V28.7085C30.2487 29.1795 29.8664 29.5618 29.3954 29.5618Z" />
<path d="M32.5249 26.4328H26.2669C25.7959 26.4328 25.4136 26.0505 25.4136 25.5794C25.4136 25.1084 25.7959 24.7261 26.2669 24.7261H32.5249C32.9959 24.7261 33.3782 25.1084 33.3782 25.5794C33.3782 26.0505 32.9959 26.4328 32.5249 26.4328Z" />
<path fill-rule="evenodd" clip-rule="evenodd" d="M25.0065 2.27402H26.8898C28.609 2.27402 30.0078 3.71971 30 5.4389V15.0117C29.8343 15.0039 29.6676 15 29.5 15C29.1439 15 28.7919 15.0177 28.4449 15.0524V5.4389C28.4449 4.57931 27.7572 3.83693 26.8898 3.83693H25.0065V4.97003C25.0065 5.39983 24.6548 5.75149 24.225 5.75149C23.7952 5.75149 23.4436 5.39983 23.4436 4.97003V3.83693H15.7853V4.97003C15.7853 5.39983 15.4337 5.75149 15.0039 5.75149C14.5741 5.75149 14.2224 5.39983 14.2224 4.97003V3.83693H6.48606V4.97003C6.48606 5.39983 6.1344 5.75149 5.7046 5.75149C5.27481 5.75149 4.92315 5.39983 4.92315 4.97003V3.83693H3.118C2.2584 3.83693 1.56291 4.5715 1.56291 5.4389V23.6077V23.6155C1.56291 24.4751 2.2584 25.1706 3.118 25.1706H19.0051C19.0017 25.28 19 25.3898 19 25.5C19 25.9173 19.0243 26.3289 19.0717 26.7335H3.118C1.39099 26.7335 0 25.3347 0 23.6077V5.4389C0 3.71971 1.3988 2.27402 3.118 2.27402H4.92315V0.781448C4.92315 0.351654 5.27481 0 5.7046 0C6.1344 0 6.48606 0.351654 6.48606 0.781448V2.27402H14.2224V0.781448C14.2224 0.351654 14.5741 0 15.0039 0C15.4337 0 15.7853 0.351654 15.7853 0.781448V2.27402H23.4436V0.781448C23.4436 0.351654 23.7952 0 24.225 0C24.6548 0 25.0065 0.351654 25.0065 0.781448V2.27402Z" />
<path d="M12.9483 8.91602H11.5808C11.151 8.91602 10.7993 9.26767 10.7993 9.69747C10.7993 10.1273 11.151 10.4789 11.5808 10.4789H12.9483C13.3781 10.4789 13.7298 10.1273 13.7298 9.69747C13.7298 9.26767 13.3781 8.91602 12.9483 8.91602Z" />
<path d="M18.3878 8.91602H17.0202C16.5904 8.91602 16.2388 9.26767 16.2388 9.69747C16.2388 10.1273 16.5904 10.4789 17.0202 10.4789H18.3878C18.8176 10.4789 19.1692 10.1273 19.1692 9.69747C19.1692 9.26767 18.8254 8.91602 18.3878 8.91602Z" />
<path d="M23.8736 8.91602H22.5061C22.0763 8.91602 21.7246 9.26767 21.7246 9.69747C21.7246 10.1273 22.0763 10.4789 22.5061 10.4789H23.8736C24.3034 10.4789 24.6551 10.1273 24.6551 9.69747C24.6551 9.26767 24.3034 8.91602 23.8736 8.91602Z" />
<path d="M12.9483 14.3081H11.5808C11.151 14.3081 10.7993 14.6598 10.7993 15.0896C10.7993 15.5194 11.151 15.871 11.5808 15.871H12.9483C13.3781 15.871 13.7298 15.5194 13.7298 15.0896C13.7298 14.6598 13.3781 14.3081 12.9483 14.3081Z" />
<path d="M7.47077 14.3081H6.09542C5.66562 14.3081 5.31396 14.6598 5.31396 15.0896C5.31396 15.5194 5.66562 15.871 6.09542 15.871H7.46296C7.89276 15.871 8.24441 15.5194 8.24441 15.0896C8.24441 14.6598 7.90057 14.3081 7.47077 14.3081Z" />
<path d="M18.3878 14.3081H17.0202C16.5904 14.3081 16.2388 14.6598 16.2388 15.0896C16.2388 15.5194 16.5904 15.871 17.0202 15.871H18.3878C18.8176 15.871 19.1692 15.5194 19.1692 15.0896C19.1692 14.6598 18.8254 14.3081 18.3878 14.3081Z" />
<path d="M23.8736 14.3081H22.5061C22.0763 14.3081 21.7246 14.6598 21.7246 15.0896C21.7246 15.5194 22.0763 15.871 22.5061 15.871H23.8736C24.3034 15.871 24.6551 15.5194 24.6551 15.0896C24.6551 14.6598 24.3034 14.3081 23.8736 14.3081Z" />
<path d="M12.9483 19.6221H11.5808C11.151 19.6221 10.7993 19.9737 10.7993 20.4035C10.7993 20.8333 11.151 21.185 11.5808 21.185H12.9483C13.3781 21.185 13.7298 20.8333 13.7298 20.4035C13.7298 19.9737 13.3781 19.6221 12.9483 19.6221Z" />
<path d="M7.47077 19.6221H6.09542C5.66562 19.6221 5.31396 19.9737 5.31396 20.4035C5.31396 20.8333 5.66562 21.185 6.09542 21.185H7.46296C7.89276 21.185 8.24441 20.8333 8.24441 20.4035C8.24441 19.9737 7.90057 19.6221 7.47077 19.6221Z" />
<path d="M18.3878 19.6221H17.0202C16.5904 19.6221 16.2388 19.9737 16.2388 20.4035C16.2388 20.8333 16.5904 21.185 17.0202 21.185H18.3878C18.8176 21.185 19.1692 20.8333 19.1692 20.4035C19.1692 19.9737 18.8254 19.6221 18.3878 19.6221Z" />
</svg>
