<svg width="19" height="16" viewBox="0 0 19 16"  xmlns="http://www.w3.org/2000/svg">
<path d="M6.55897 11.9779H15.9037C16.091 11.9779 16.2569 11.911 16.4014 11.7772C16.5459 11.6434 16.6182 11.4722 16.6182 11.2634C16.6182 11.0493 16.5459 10.8754 16.4014 10.7416C16.2569 10.6078 16.091 10.5409 15.9037 10.5409H6.7436C6.55627 10.5409 6.4024 10.4793 6.28198 10.3562C6.16156 10.2332 6.08797 10.0672 6.06121 9.85851L4.77671 1.05168C4.72855 0.698441 4.61615 0.434851 4.43954 0.26091C4.26292 0.0869682 3.94982 0 3.50025 0H0.754641C0.551263 0 0.374644 0.0762668 0.224786 0.228801C0.0749288 0.381334 0 0.559288 0 0.762666C0 0.971396 0.0749288 1.15203 0.224786 1.30456C0.374644 1.4571 0.551262 1.53337 0.754641 1.53337H3.26743L4.50376 10.0271C4.59474 10.6319 4.80615 11.1082 5.13798 11.4561C5.46981 11.804 5.94346 11.9779 6.55895 11.9779H6.55897ZM5.16208 9.03161H15.9679C16.5834 9.03161 17.057 8.85633 17.3889 8.50577C17.7207 8.15521 17.9321 7.67486 18.0231 7.06473L18.6252 3.04264C18.6359 2.98912 18.6439 2.93159 18.6493 2.87004C18.6546 2.80849 18.6573 2.75631 18.6573 2.71349C18.6573 2.478 18.5797 2.28666 18.4245 2.13948C18.2693 1.9923 18.0525 1.91871 17.7742 1.91871H4.43958L4.44761 3.35574H16.9875L16.4737 6.92021C16.4469 7.12359 16.3787 7.28549 16.269 7.40591C16.1593 7.52633 16.0054 7.58654 15.8074 7.58654L5.15407 7.59457L5.16208 9.03161ZM7.21727 16C7.60262 16 7.93311 15.8648 8.20874 15.5946C8.48437 15.3243 8.62219 14.9938 8.62219 14.6031C8.62219 14.3462 8.55796 14.1107 8.42951 13.8966C8.30106 13.6825 8.13247 13.5139 7.92374 13.3909C7.71501 13.2678 7.47952 13.2062 7.21727 13.2062C6.95502 13.2062 6.71819 13.2678 6.50678 13.3909C6.29538 13.5139 6.12679 13.6825 6.00101 13.8966C5.87524 14.1107 5.81235 14.3462 5.81235 14.6031C5.81235 14.86 5.87524 15.0955 6.00101 15.3096C6.12679 15.5236 6.29538 15.6922 6.50678 15.8153C6.71819 15.9384 6.95502 16 7.21727 16H7.21727ZM14.6352 16C15.0206 16 15.3511 15.8648 15.6267 15.5946C15.9023 15.3243 16.0402 14.9938 16.0402 14.6031C16.0402 14.3462 15.9759 14.1107 15.8475 13.8966C15.719 13.6825 15.5504 13.5139 15.3417 13.3909C15.133 13.2678 14.8975 13.2062 14.6352 13.2062C14.373 13.2062 14.1362 13.2678 13.9248 13.3909C13.7133 13.5139 13.5434 13.6825 13.415 13.8966C13.2865 14.1107 13.2223 14.3462 13.2223 14.6031C13.2223 14.86 13.2865 15.0955 13.415 15.3096C13.5434 15.5236 13.7133 15.6922 13.9248 15.8153C14.1362 15.9384 14.373 16 14.6352 16H14.6352Z" />
</svg>
