<svg width="50" height="50" viewBox="0 0 50 50" xmlns="http://www.w3.org/2000/svg">
<path d="M48.9898 45.5414L44.8547 41.4062L45.0836 41.1773C45.2301 41.0308 45.3123 40.8322 45.3123 40.625C45.3123 40.4178 45.2301 40.2192 45.0836 40.0727L42.818 37.8109C43.7738 35.7396 44.0001 33.4057 43.46 31.1894C42.9199 28.973 41.6453 27.0049 39.8438 25.6055V20.3125C39.8438 20.1053 39.7614 19.9066 39.6149 19.7601C39.4684 19.6136 39.2697 19.5312 39.0625 19.5312H30.4688V1.5625C30.4688 1.3553 30.3864 1.15659 30.2399 1.01007C30.0934 0.86356 29.8947 0.78125 29.6875 0.78125H10.9375C10.7303 0.78125 10.5316 0.86356 10.3851 1.01007C10.2386 1.15659 10.1562 1.3553 10.1562 1.5625V19.5312H1.5625C1.3553 19.5312 1.15659 19.6136 1.01007 19.7601C0.86356 19.9066 0.78125 20.1053 0.78125 20.3125V39.0625C0.78125 39.2697 0.86356 39.4684 1.01007 39.6149C1.15659 39.7614 1.3553 39.8438 1.5625 39.8438H25.6055C27.0044 41.6463 28.9726 42.922 31.1893 43.4628C33.4061 44.0036 35.7406 43.7777 37.8125 42.8219L40.0742 45.0875C40.2207 45.234 40.4194 45.3162 40.6266 45.3162C40.8337 45.3162 41.0324 45.234 41.1789 45.0875L41.4062 44.8547L45.5414 48.9898C45.6879 49.1364 45.8866 49.2187 46.0938 49.2188H48.4375C48.6447 49.2188 48.8434 49.1364 48.9899 48.9899C49.1364 48.8434 49.2188 48.6447 49.2188 48.4375V46.0938C49.2187 45.8866 49.1364 45.6879 48.9898 45.5414ZM38.2812 24.593C36.8354 23.8337 35.2268 23.4372 33.5938 23.4375V21.0938H38.2812V24.593ZM23.5703 35.1562H21.0938V21.0938H25.7812V27.1094C24.8529 28.2111 24.1746 29.501 23.7929 30.8902C23.4112 32.2794 23.3352 33.7349 23.5703 35.1562ZM27.3438 21.0938H32.0312V23.5703C30.3205 23.8346 28.7064 24.5341 27.3438 25.6016V21.0938ZM17.9688 2.34375H22.6562V8.27031L20.8648 6.47891C20.7183 6.33244 20.5197 6.25017 20.3125 6.25017C20.1053 6.25017 19.9067 6.33244 19.7602 6.47891L17.9688 8.27031V2.34375ZM16.4062 2.34375V10.1562C16.4063 10.3107 16.4521 10.4618 16.538 10.5902C16.6238 10.7186 16.7458 10.8188 16.8886 10.8779C17.0313 10.937 17.1883 10.9525 17.3399 10.9223C17.4914 10.8922 17.6306 10.8178 17.7398 10.7086L20.3125 8.13594L22.8852 10.7086C22.9944 10.8178 23.1336 10.8922 23.2851 10.9223C23.4367 10.9525 23.5937 10.937 23.7364 10.8779C23.8792 10.8188 24.0012 10.7186 24.087 10.5902C24.1729 10.4618 24.2187 10.3107 24.2188 10.1562V2.34375H28.9062V16.4062H11.7188V2.34375H16.4062ZM11.7188 17.9688H28.9062V19.5312H11.7188V17.9688ZM8.59375 21.0938H13.2812V27.0203L11.4898 25.2289C11.3433 25.0824 11.1447 25.0002 10.9375 25.0002C10.7303 25.0002 10.5317 25.0824 10.3852 25.2289L8.59375 27.0203V21.0938ZM7.03125 21.0938V28.9062C7.03128 29.0607 7.07712 29.2118 7.16297 29.3402C7.24881 29.4686 7.37082 29.5688 7.51355 29.6279C7.65629 29.687 7.81334 29.7025 7.96487 29.6723C8.11639 29.6422 8.25558 29.5678 8.36484 29.4586L10.9375 26.8859L13.5102 29.4586C13.6566 29.6051 13.8553 29.6875 14.0625 29.6875C14.1652 29.6878 14.2669 29.6676 14.3617 29.6281C14.5044 29.5689 14.6264 29.4688 14.7122 29.3403C14.798 29.2118 14.8438 29.0608 14.8438 28.9062V21.0938H19.5312V35.1562H2.34375V21.0938H7.03125ZM2.34375 36.7188H19.5312V38.2812H2.34375V36.7188ZM21.0938 38.2812V36.7188H23.9344C24.1099 37.2571 24.3302 37.7797 24.593 38.2812H21.0938ZM25 33.5938C25 31.8941 25.504 30.2326 26.4483 28.8193C27.3926 27.4061 28.7348 26.3046 30.3051 25.6542C31.8754 25.0037 33.6033 24.8335 35.2703 25.1651C36.9373 25.4967 38.4686 26.3152 39.6704 27.517C40.8723 28.7189 41.6908 30.2502 42.0224 31.9172C42.354 33.5842 42.1838 35.3121 41.5333 36.8824C40.8829 38.4527 39.7814 39.7949 38.3682 40.7392C36.9549 41.6835 35.2934 42.1875 33.5938 42.1875C31.3154 42.1848 29.1311 41.2785 27.52 39.6675C25.909 38.0564 25.0027 35.8721 25 33.5938ZM39.2328 42.0312C40.3391 41.2898 41.2898 40.3391 42.0312 39.2328L43.4266 40.625L40.625 43.4266L39.2328 42.0312ZM47.6562 47.6562H46.4172L42.5109 43.75L43.75 42.5109L47.6562 46.4172V47.6562Z" />
<path d="M33.5938 26.5625C32.2031 26.5625 30.8437 26.9749 29.6874 27.7475C28.5311 28.5201 27.6299 29.6182 27.0977 30.903C26.5655 32.1878 26.4263 33.6016 26.6976 34.9655C26.9689 36.3294 27.6386 37.5823 28.6219 38.5656C29.6052 39.5489 30.8581 40.2186 32.222 40.4899C33.586 40.7612 34.9997 40.622 36.2845 40.0898C37.5693 39.5576 38.6674 38.6564 39.44 37.5001C40.2126 36.3438 40.625 34.9844 40.625 33.5938C40.6229 31.7296 39.8815 29.9424 38.5633 28.6242C37.2451 27.306 35.4579 26.5646 33.5938 26.5625ZM33.5938 39.0625C32.5121 39.0625 31.4548 38.7418 30.5555 38.1408C29.6561 37.5399 28.9552 36.6858 28.5413 35.6866C28.1274 34.6873 28.0191 33.5877 28.2301 32.5269C28.4411 31.466 28.9619 30.4916 29.7268 29.7268C30.4916 28.9619 31.466 28.4411 32.5269 28.2301C33.5877 28.0191 34.6873 28.1274 35.6866 28.5413C36.6858 28.9552 37.5399 29.6561 38.1409 30.5555C38.7418 31.4548 39.0625 32.5121 39.0625 33.5938C39.0606 35.0436 38.4839 36.4335 37.4587 37.4587C36.4335 38.4839 35.0436 39.0606 33.5938 39.0625Z" />
<path d="M33.5938 29.6875V31.25C34.2154 31.25 34.8115 31.4969 35.251 31.9365C35.6906 32.376 35.9375 32.9721 35.9375 33.5938H37.5C37.4988 32.5581 37.0868 31.5653 36.3545 30.833C35.6222 30.1007 34.6294 29.6887 33.5938 29.6875Z" />
<path d="M31.25 33.5938H29.6875C29.6887 34.6294 30.1007 35.6222 30.833 36.3545C31.5653 37.0868 32.5581 37.4988 33.5938 37.5V35.9375C32.9721 35.9375 32.376 35.6906 31.9365 35.251C31.4969 34.8115 31.25 34.2154 31.25 33.5938Z" />
</svg>
