<svg width="33" height="37" viewBox="0 0 33 37"  xmlns="http://www.w3.org/2000/svg">
<path d="M5.79135 11.0825H12.7871C13.175 11.0825 13.4896 11.397 13.4896 11.785C13.4896 12.173 13.1751 12.4875 12.7871 12.4875H5.79135C5.40337 12.4875 5.08887 12.173 5.08887 11.785C5.08887 11.397 5.40337 11.0825 5.79135 11.0825Z" />
<path fill-rule="evenodd" clip-rule="evenodd" d="M23.0801 1.77589C22.578 1.54463 21.9864 1.63455 21.5757 2.00448L19.626 3.73082L16.9735 1.35805C16.4406 0.880649 15.6338 0.880649 15.1009 1.35805L12.4505 3.72857L9.79945 1.35805C9.26641 0.880649 8.45954 0.880649 7.92649 1.35805L5.27322 3.73082L3.32173 2.00455C2.74591 1.49272 1.86415 1.54463 1.35233 2.12046C1.12318 2.37827 0.997645 2.71187 1.00003 3.05679V28.9432C0.995467 29.7147 1.61723 30.3439 2.38877 30.3484C2.73376 30.3505 3.06736 30.2247 3.32524 29.9955L5.27491 28.2692L7.92748 30.6419C8.46038 31.1193 9.26718 31.1193 9.80008 30.6419L11.3167 29.2853C12.9874 33.2315 16.8957 36 21.4507 36C27.5258 36 32.4507 31.0751 32.4507 25C32.4507 19.7671 28.7966 15.3876 23.9009 14.2739V3.05679C23.9079 2.50415 23.5851 2.00047 23.0801 1.77589ZM22.4989 14.0493L22.4959 3.05679L20.5515 4.78314C20.0205 5.25521 19.2197 5.25303 18.6913 4.77808L16.0377 2.40538L13.3869 4.7759C12.854 5.25331 12.0471 5.25331 11.5141 4.7759L8.86367 2.40538L6.21118 4.77808C5.68073 5.2531 4.8785 5.25521 4.34553 4.78307L2.39797 3.05714L2.40499 28.9424L4.34939 27.2166C4.8804 26.7445 5.68122 26.7467 6.20963 27.2216L8.86325 29.5943L10.8216 27.843C10.5797 26.9361 10.4507 25.9831 10.4507 25C10.4507 23.5573 10.7284 22.1795 11.2333 20.9172H5.79135C5.40337 20.9172 5.08887 20.6027 5.08887 20.2147C5.08887 19.8267 5.40337 19.5122 5.79135 19.5122H11.9152C12.5272 18.4512 13.3112 17.5018 14.229 16.7023H5.79135C5.40337 16.7023 5.08887 16.3878 5.08887 15.9998C5.08887 15.6119 5.40337 15.2974 5.79135 15.2974H16.2636C17.8089 14.4695 19.575 14 21.4507 14C21.8042 14 22.1539 14.0167 22.4989 14.0493ZM30.9507 25C30.9507 30.2467 26.6974 34.5 21.4507 34.5C16.204 34.5 11.9507 30.2467 11.9507 25C11.9507 19.7533 16.204 15.5 21.4507 15.5C26.6974 15.5 30.9507 19.7533 30.9507 25Z" />
<path d="M5.79135 11.0825H12.7871C13.175 11.0825 13.4896 11.397 13.4896 11.785C13.4896 12.173 13.1751 12.4875 12.7871 12.4875H5.79135C5.40337 12.4875 5.08887 12.173 5.08887 11.785C5.08887 11.397 5.40337 11.0825 5.79135 11.0825Z" stroke="currentColor"/>
<path fill-rule="evenodd" clip-rule="evenodd" d="M23.0801 1.77589C22.578 1.54463 21.9864 1.63455 21.5757 2.00448L19.626 3.73082L16.9735 1.35805C16.4406 0.880649 15.6338 0.880649 15.1009 1.35805L12.4505 3.72857L9.79945 1.35805C9.26641 0.880649 8.45954 0.880649 7.92649 1.35805L5.27322 3.73082L3.32173 2.00455C2.74591 1.49272 1.86415 1.54463 1.35233 2.12046C1.12318 2.37827 0.997645 2.71187 1.00003 3.05679V28.9432C0.995467 29.7147 1.61723 30.3439 2.38877 30.3484C2.73376 30.3505 3.06736 30.2247 3.32524 29.9955L5.27491 28.2692L7.92748 30.6419C8.46038 31.1193 9.26718 31.1193 9.80008 30.6419L11.3167 29.2853C12.9874 33.2315 16.8957 36 21.4507 36C27.5258 36 32.4507 31.0751 32.4507 25C32.4507 19.7671 28.7966 15.3876 23.9009 14.2739V3.05679C23.9079 2.50415 23.5851 2.00047 23.0801 1.77589ZM22.4989 14.0493L22.4959 3.05679L20.5515 4.78314C20.0205 5.25521 19.2197 5.25303 18.6913 4.77808L16.0377 2.40538L13.3869 4.7759C12.854 5.25331 12.0471 5.25331 11.5141 4.7759L8.86367 2.40538L6.21118 4.77808C5.68073 5.2531 4.8785 5.25521 4.34553 4.78307L2.39797 3.05714L2.40499 28.9424L4.34939 27.2166C4.8804 26.7445 5.68122 26.7467 6.20963 27.2216L8.86325 29.5943L10.8216 27.843C10.5797 26.9361 10.4507 25.9831 10.4507 25C10.4507 23.5573 10.7284 22.1795 11.2333 20.9172H5.79135C5.40337 20.9172 5.08887 20.6027 5.08887 20.2147C5.08887 19.8267 5.40337 19.5122 5.79135 19.5122H11.9152C12.5272 18.4512 13.3112 17.5018 14.229 16.7023H5.79135C5.40337 16.7023 5.08887 16.3878 5.08887 15.9998C5.08887 15.6119 5.40337 15.2974 5.79135 15.2974H16.2636C17.8089 14.4695 19.575 14 21.4507 14C21.8042 14 22.1539 14.0167 22.4989 14.0493ZM30.9507 25C30.9507 30.2467 26.6974 34.5 21.4507 34.5C16.204 34.5 11.9507 30.2467 11.9507 25C11.9507 19.7533 16.204 15.5 21.4507 15.5C26.6974 15.5 30.9507 19.7533 30.9507 25Z" stroke="currentColor"/>
<path d="M20.5718 21C20.5718 20.4478 21.0196 20 21.5718 20C22.1241 20 22.5718 20.4478 22.5718 21V25.8999L23.7646 24.7072C24.1552 24.3165 24.7882 24.3165 25.1789 24.7072C25.5694 25.0977 25.5694 25.7308 25.1789 26.1213L22.3504 28.9497C22.1369 29.1632 21.851 29.26 21.5718 29.2401C21.2926 29.26 21.0067 29.1632 20.7932 28.9497L17.9648 26.1213C17.5742 25.7308 17.5742 25.0977 17.9648 24.7072C18.3554 24.3165 18.9884 24.3165 19.3791 24.7072L20.5718 25.8999V21Z" />
</svg>
