<svg width="24" height="24" viewBox="0 0 24 24" fill="none" xmlns="http://www.w3.org/2000/svg">
<path d="M23.6468 11.9666C23.6468 18.4199 18.4134 23.6532 11.9601 23.6532C5.50677 23.6532 0.273438 18.4199 0.273438 11.9666C0.273438 5.51334 5.50677 0.280029 11.9601 0.280029C18.4134 0.280029 23.6468 5.51334 23.6468 11.9666Z" fill="#CA2127"/>
<path d="M10.9801 4.19336C7.68672 4.5467 4.40669 7.08002 4.27336 10.7067C4.18669 12.92 5.11337 14.58 7.32672 15.0466C7.58005 14 7.62672 13.4333 7.62672 13.4333C7.62672 13.4333 6.65338 12.5 6.55338 11.9067C5.74004 7.13335 12.3334 3.87337 15.7935 7.20668C18.1801 9.52 16.6068 16.6333 12.7534 15.8933C9.06006 15.1866 14.5601 9.52667 11.6134 8.41334C9.22007 7.50668 7.94672 11.18 9.08006 13C8.41339 16.1333 6.98005 19.0866 7.56005 23.0133C9.44673 21.7133 10.0801 19.22 10.6001 16.62C11.5468 17.1666 12.0534 17.74 13.2601 17.8266C17.7135 18.1533 20.2002 13.5933 19.5935 9.38C19.0468 5.64669 15.1401 3.7467 10.9801 4.19336Z" fill="white"/>
</svg>
