<svg width="24" height="20" viewBox="0 0 24 20" fill="none" xmlns="http://www.w3.org/2000/svg">
<path d="M7.50093 19.755C16.5581 19.755 21.5109 12.2515 21.5109 5.74501C21.5109 5.53187 21.5065 5.31965 21.497 5.10853C22.4583 4.41346 23.294 3.54609 23.9532 2.55878C23.071 2.95099 22.1214 3.21485 21.1255 3.33405C22.1421 2.72431 22.9227 1.76007 23.2907 0.610535C22.3393 1.1745 21.2857 1.58429 20.164 1.80567C19.2655 0.848573 17.9861 0.25 16.5696 0.25C13.8505 0.25 11.6453 2.45514 11.6453 5.17335C11.6453 5.55989 11.6886 5.93562 11.773 6.29615C7.68056 6.09016 4.05158 4.13093 1.62323 1.15143C1.20044 1.87909 0.956545 2.72449 0.956545 3.62647C0.956545 5.33467 1.82593 6.84291 3.14777 7.72511C2.33991 7.70021 1.58112 7.47847 0.917727 7.10933C0.916994 7.13002 0.916994 7.15016 0.916994 7.17213C0.916994 9.5569 2.6142 11.548 4.8675 11.9992C4.45368 12.1118 4.01826 12.1724 3.5691 12.1724C3.25233 12.1724 2.94361 12.1413 2.6435 12.0836C3.27045 14.0401 5.08833 15.4637 7.24348 15.5036C5.55818 16.8246 3.43507 17.6114 1.12775 17.6114C0.730775 17.6114 0.338563 17.5887 -0.046875 17.5432C2.13227 18.94 4.7201 19.7552 7.50111 19.7552" fill="#1DA1F2"/>
</svg>
