<svg width="24" height="18" viewBox="0 0 24 18" fill="none" xmlns="http://www.w3.org/2000/svg">
<path d="M23.5055 3.23876C23.2288 2.21063 22.4182 1.4002 21.3903 1.12335C19.5122 0.609375 11.9998 0.609375 11.9998 0.609375C11.9998 0.609375 4.48753 0.609375 2.60943 1.10376C1.60125 1.38043 0.770871 2.21081 0.4942 3.23876C0 5.11668 0 9.01132 0 9.01132C0 9.01132 0 12.9255 0.4942 14.7839C0.771054 15.8118 1.58148 16.6224 2.60961 16.8993C4.50731 17.4133 12 17.4133 12 17.4133C12 17.4133 19.5122 17.4133 21.3903 16.9189C22.4184 16.6422 23.2288 15.8316 23.5057 14.8037C23.9999 12.9255 23.9999 9.03109 23.9999 9.03109C23.9999 9.03109 24.0197 5.11668 23.5055 3.23876Z" fill="#FF0000"/>
<path d="M9.60791 12.6094L15.8549 9.01135L9.60791 5.41333V12.6094Z" fill="white"/>
</svg>
