<?xml version="1.0" standalone="no"?>
<!DOCTYPE svg PUBLIC "-//W3C//DTD SVG 20010904//EN"
 "http://www.w3.org/TR/2001/REC-SVG-20010904/DTD/svg10.dtd">
<svg version="1.0" xmlns="http://www.w3.org/2000/svg"
 width="881.000000pt" height="881.000000pt" viewBox="0 0 881.000000 881.000000"
 preserveAspectRatio="xMidYMid meet">
<g transform="translate(0.000000,881.000000) scale(0.100000,-0.100000)"
fill="#FFFFFF" stroke="none">
<path d="M0 4405 l0 -4405 4400 0 4400 0 0 4405 0 4405 -4400 0 -4400 0 0
-4405z m1425 2263 c55 -14 128 -52 171 -90 21 -18 575 -751 1232 -1628 939
-1253 1213 -1612 1278 -1676 136 -132 192 -163 299 -163 145 -1 250 95 573
524 124 165 334 444 467 620 133 176 380 505 550 730 170 226 404 536 520 690
116 154 306 406 422 560 116 154 234 302 262 328 28 27 82 63 119 80 64 31 72
32 192 32 121 0 127 -1 194 -33 92 -43 150 -92 198 -166 53 -82 78 -169 78
-271 0 -144 -17 -179 -200 -425 -88 -118 -284 -381 -435 -585 -151 -203 -399
-536 -550 -740 -151 -203 -399 -536 -550 -740 -929 -1251 -869 -1173 -984
-1269 -192 -160 -405 -262 -630 -301 -98 -17 -346 -20 -441 -4 -175 28 -381
111 -527 211 -105 72 -211 180 -314 318 -159 213 -1218 1629 -1833 2450 -410
546 -624 841 -651 893 -36 71 -40 87 -43 172 -5 114 17 200 76 291 108 166
321 244 527 192z"/>
</g>
</svg>
